<?xml version="1.0" encoding="UTF-8" standalone="no"?>
<!DOCTYPE svg PUBLIC "-//W3C//DTD SVG 1.1//EN" "http://www.w3.org/Graphics/SVG/1.1/DTD/svg11.dtd">
<!-- Created with Vectornator (http://vectornator.io/) -->
<svg height="100%" stroke-miterlimit="10" style="fill-rule:nonzero;clip-rule:evenodd;stroke-linecap:round;stroke-linejoin:round;" version="1.1" viewBox="0 0 1150.14 1037.5" width="100%" xml:space="preserve" xmlns="http://www.w3.org/2000/svg" xmlns:vectornator="http://vectornator.io" xmlns:xlink="http://www.w3.org/1999/xlink">
<defs/>
<clipPath id="ArtboardFrame">
<rect height="1037.5" width="1150.14" x="0" y="0"/>
</clipPath>
<g clip-path="url(#ArtboardFrame)" id="Layer-1" vectornator:layerName="Layer 1">
<path d="M-104.679 14.2761C-103.114 20.5369-101.549 26.7977-99.9838 33.0585" fill="none" opacity="1" stroke="#519634" stroke-linecap="round" stroke-linejoin="round" stroke-width="24.2904" vectornator:layerName="Curve 1"/>
<path d="M687.271-105.287C685.21-104.05 683.149-102.814 681.088-101.577" fill="none" opacity="1" stroke="#261008" stroke-linecap="round" stroke-linejoin="round" stroke-width="27.7111" vectornator:layerName="Curve 2"/>
<path d="M106.696-10.5603C100.187-29.1571 93.7747-47.9492 87.442-66.9475" fill="none" opacity="1" stroke="#261008" stroke-linecap="round" stroke-linejoin="round" stroke-width="9.71284" vectornator:layerName="Curve 89"/>
<path d="M-143.269 432.187L-146.805 422.759" fill="none" opacity="1" stroke="#261008" stroke-linecap="round" stroke-linejoin="round" stroke-width="9.71284" vectornator:layerName="Curve 28"/>
<path d="M91.2495-248.978C92.0352-248.978 92.8208-248.978 93.6065-248.978" fill="none" opacity="1" stroke="#261008" stroke-linecap="round" stroke-linejoin="round" stroke-width="9.71284" vectornator:layerName="Curve 29"/>
<path d="M-143.269 402.725C-142.091 402.725-140.912 402.725-139.734 402.725" fill="none" opacity="1" stroke="#261008" stroke-linecap="round" stroke-linejoin="round" stroke-width="9.71284" vectornator:layerName="Curve 30"/>
<path d="M1110.64-61.5989C1140.94-61.5989 1170.12-61.0719 1200.21-58.0635" fill="none" opacity="1" stroke="#261008" stroke-linecap="round" stroke-linejoin="round" stroke-width="9.71284" vectornator:layerName="Curve 31"/>
<path d="M931.511-48.6356C952.288-79.8017 1059.04-63.2824 1042.29-29.7798" fill="none" opacity="1" stroke="#261008" stroke-linecap="round" stroke-linejoin="round" stroke-width="9.71284" vectornator:layerName="Curve 32"/>
<path d="M916.191-50.9925C948.234-67.014 1057.42-46.7346 1023.43-58.0635" fill="none" opacity="1" stroke="#261008" stroke-linecap="round" stroke-linejoin="round" stroke-width="9.71284" vectornator:layerName="Curve 33"/>
<path d="M-171.553-198.303C-178.677-200.085-177.804-199.994-169.196-197.125" fill="none" opacity="1" stroke="#261008" stroke-linecap="round" stroke-linejoin="round" stroke-width="9.71284" vectornator:layerName="Curve 34"/>
<path d="M386.569-176.956L403.785-181.875" fill="none" opacity="1" stroke="#2f411f" stroke-linecap="round" stroke-linejoin="round" stroke-width="9.71284" vectornator:layerName="Curve 35"/>
<path d="M424.615 703.234C383.849 735.086 344.513 785.738 335.19 828.016C327.714 861.917 348.787 923.339 391.466 920.241C430.13 917.435 439.849 874.3 465.748 852.807C481.284 839.914 495.762 826.895 511.501 815.685" fill="none" opacity="1" stroke="#2f411f" stroke-linecap="round" stroke-linejoin="round" stroke-width="19.8801" vectornator:layerName="Curve 92"/>
<path d="M248.149 369.139C224.877 406.561 201.548 442.91 183.752 483.362C167.655 519.952 159.725 559.808 141.747 594.921C131.505 614.925 133.344 641.912 125.924 663.045C113.515 698.387 120.913 765.986 164.186 778.903C187.111 785.747 199.438 771.993 217.685 764.896" fill="none" opacity="1" stroke="#2f411f" stroke-linecap="round" stroke-linejoin="round" stroke-width="19.8801" vectornator:layerName="Curve 70"/>
<path d="M305.052 573.723C303.364 591.873 314.76 609.281 317.491 627.076C325.105 676.691 346.439 718.328 350.138 769.301C352.45 801.145 333.779 856.831 293.945 846.326C258.309 836.928 236.709 788.548 224.686 757.639" fill="none" opacity="1" stroke="#2f411f" stroke-linecap="round" stroke-linejoin="round" stroke-width="19.8801" vectornator:layerName="Curve 74"/>
<path d="M306.367 574.052C313.58 587.378 326.119 597.814 335.772 609.425C359.974 638.541 389.018 673.322 421.071 695.531" fill="none" opacity="1" stroke="#2f411f" stroke-linecap="round" stroke-linejoin="round" stroke-width="19.8801" vectornator:layerName="Curve 93"/>
<path d="M14.1083 4.79171C37.6373 75.3785 70.9215 140.654 104.064 206.939" fill="none" opacity="1" stroke="#2f411f" stroke-linecap="round" stroke-linejoin="round" stroke-width="19.8801" vectornator:layerName="Curve 55"/>
<path d="M105.074 205.928C96.7592 210.086 72.7155 259.279 67.6773 270.615C43.6915 324.583 24.2157 378.267 24.2157 438.397C24.2157 471.071 37.0113 509.819 70.7095 523.299C123.816 544.541 138.875 502.585 156.622 462.655C168.651 435.59 176.706 408.087 186.944 380.785C190.208 372.082 199.015 335.331 207.159 331.259C209.897 329.89 213.959 333.159 215.245 335.302C224.048 349.974 231.512 357.081 246.577 364.613" fill="none" opacity="1" stroke="#2f411f" stroke-linecap="round" stroke-linejoin="round" stroke-width="19.8801" vectornator:layerName="Curve 73"/>
<path d="M719.601 551.599C729.312 561.31 742.396 567.318 751.945 576.868C777.11 602.033 810.046 621.585 841.9 637.512C849.602 641.362 857.214 646.341 866.158 647.619C921.203 655.483 928.619 596.189 902.544 559.685C885.803 536.247 863.81 512.403 839.879 494.998C825.596 484.611 808.777 475.015 796.417 462.655" fill="none" opacity="1" stroke="#2f411f" stroke-linecap="round" stroke-linejoin="round" stroke-width="19.8801" vectornator:layerName="Curve 79"/>
<path d="M604.377 507.127C597.712 520.459 600.335 545.998 600.335 560.696C600.335 601.821 602.403 654.294 639.753 680.973C683.292 712.072 712.843 641.736 716.569 608.2C718.711 588.92 724.655 568.94 724.655 549.578" fill="none" opacity="1" stroke="#2f411f" stroke-linecap="round" stroke-linejoin="round" stroke-width="19.8801" vectornator:layerName="Curve 80"/>
<path d="M703.429 344.399C705.723 339.811 747.631 331.498 754.977 329.238C799.176 315.638 882.187 300.521 924.78 324.184C949.147 337.721 973.296 352.778 973.296 383.817C973.296 391.226 973.495 397.018 968.242 403.021C942.672 432.244 889.079 451.348 850.997 455.579C836.353 457.207 811.523 455.102 798.439 461.644" fill="none" opacity="1" stroke="#2f411f" stroke-linecap="round" stroke-linejoin="round" stroke-width="19.8801" vectornator:layerName="Curve 81"/>
<path d="M505.325 826.519C526.758 837.235 545.317 861.812 563.948 877.056C613.407 917.522 670.305 950.406 725.666 981.162C760.764 1000.66 808.079 1022.33 847.965 1002.39C860.305 996.217 871.007 983.399 873.233 970.043C874.888 960.113 877.313 947.991 875.254 937.7C869.397 908.414 821.706 882.883 800.46 866.948C791.581 860.289 781.568 854.017 772.159 847.745C760.139 839.731 745.383 833.743 732.741 826.519C720.55 819.553 697.766 801.251 683.215 801.251" fill="none" opacity="1" stroke="#2f411f" stroke-linecap="round" stroke-linejoin="round" stroke-width="19.8801" vectornator:layerName="Curve 96"/>
<path d="M689.279 669.855C707.985 669.855 728.814 660.472 747.902 658.737C800.184 653.984 857.316 651.571 907.598 669.855C924.378 675.957 956.153 689.94 965.21 706.242C983.205 738.633 932.602 764.151 910.63 775.982C891.521 786.272 869.213 788.487 847.965 791.143C806.996 796.264 766.752 796.294 725.666 799.229C711.781 800.221 698.008 805.294 684.226 805.294" fill="none" opacity="1" stroke="#2f411f" stroke-linecap="round" stroke-linejoin="round" stroke-width="19.8801" vectornator:layerName="Curve 97"/>
<path d="M438.216 507.548C450.297 525.67 467.184 539.379 479.597 556.758C486.142 565.92 491.364 576.023 498.61 584.718C505.77 593.31 514.828 601.497 519.859 611.56" fill="none" opacity="1" stroke="#2f411f" stroke-linecap="round" stroke-linejoin="round" stroke-width="19.8801" vectornator:layerName="Curve 66"/>
<path d="M431.505 505.311C447.493 497.317 474.776 499.502 491.899 498.601C526.441 496.783 564.863 493.098 598.148 504.193" fill="none" opacity="1" stroke="#2f411f" stroke-linecap="round" stroke-linejoin="round" stroke-width="19.8801" vectornator:layerName="Curve 67"/>
<path d="M512.031 610.441C521.168 615.01 522.817 629.995 531.043 636.165C545.09 646.699 578.313 640.638 594.793 640.638" fill="none" opacity="1" stroke="#2f411f" stroke-linecap="round" stroke-linejoin="round" stroke-width="19.8801" vectornator:layerName="Curve 49"/>
<path d="M185.456 7.62014C221.599 79.9073 264.267 146.919 297.297 221.236C306.897 242.838 322.263 262.583 329.73 284.985" fill="none" opacity="1" stroke="#2f411f" stroke-linecap="round" stroke-linejoin="round" stroke-width="19.8801" vectornator:layerName="Curve 57"/>
<path d="M340.914 291.695C368.035 291.695 395.248 287.358 422.558 289.459C475.982 293.568 528.661 301.943 581.372 311.827C594.81 314.346 607.259 320.359 620.516 323.011C648.193 328.546 676.644 334.264 703.278 343.142" fill="none" opacity="1" stroke="#2f411f" stroke-linecap="round" stroke-linejoin="round" stroke-width="19.8801" vectornator:layerName="Curve 51"/>
<path d="M-197.282 1496.54C-203.631 1494.42-204.731 1494.96-200.227 1494.33" fill="none" opacity="1" stroke="#2f411f" stroke-linecap="round" stroke-linejoin="round" stroke-width="19.8801" vectornator:layerName="Curve 98"/>
<path d="M688.849-261.709C693.681-262.391 691.484-262.67 695.482-261.33" fill="#174006" fill-rule="nonzero" opacity="1" stroke="#2f411f" stroke-linecap="round" stroke-linejoin="round" stroke-width="19.8801" vectornator:layerName="Curve 99"/>
<path d="M25.5487-5.04706C23.3741 19.068 45.9287 54.7739 59.1531 73.3489C72.0963 91.5291 72.9722 118.653 84.4414 137.836C95.3186 156.029 116.583 192.652 114.593 214.724C112.332 239.802 93.5867 253.418 84.0025 275.369C64.8154 319.312 50.4536 370.117 42.469 417.57C37.9719 444.297 36.4795 500.309 64.5472 517.656C95.1985 536.6 118.373 516.658 138.42 494.41C148.981 482.691 167.584 469.99 174.312 454.581C181.79 437.453 179.035 415.515 186.567 398.264C192.018 385.781 197.506 373.211 203.151 360.282C214.231 334.906 227.235 336.331 247.261 348.708C250.014 350.41 257.023 351.709 258.593 355.711C261.429 362.945 245.755 375.697 243.079 381.827C234.569 401.317 220.272 419.937 211.516 439.991C194.865 478.125 184.072 516.967 167.697 554.472C160.921 569.989 164.025 591.128 156.948 607.335C147.058 629.987 134.051 648.999 131.756 674.448C129.503 699.43 127.633 746.649 156.412 759.215C182.856 770.761 214.778 741.532 229.215 747.836C246.445 755.359 269.89 835.243 292.923 837.32C309.161 838.784 341.096 818.898 341.653 801.041C342.135 785.591 335.143 770.458 332.559 755.958C324.835 712.603 319.814 670.354 310.676 627.179C309.305 620.704 295.324 563.437 312.573 566.34C320.296 567.639 347.851 604.544 356.293 612.152C372.087 626.384 425.345 660.145 429.047 680.919C429.616 684.113 394.194 731.231 389.07 739.521C379.968 754.248 367.623 769.809 361.058 784.846C357.87 792.147 360.573 803.489 359.89 811.059C356.99 843.223 351.864 871.889 369.664 901.662C378.488 916.42 409.789 904.905 420.145 899.036C452.608 880.638 481.643 806.255 528.937 833.48C558.715 850.623 584.02 875.36 610.639 895.877C631.335 911.828 660.265 919.657 682.615 933.47C717.136 954.806 749.97 971.102 786.639 987.113C811.067 997.779 865.636 1009.11 876.269 974.858C894.45 916.296 771.563 849.736 732.367 819.525C715.151 806.255 697.746 795.68 682.178 779.11C680.819 777.663 676.958 776.942 677.753 775.122C680.761 768.234 739.335 779.004 747.978 779.062C769.284 779.207 789.597 785.11 811.298 779.987C838.624 773.536 866.914 763.709 894.557 758.784C913.674 755.378 945.563 754.26 952.138 730.48C962.934 691.441 920.954 661.873 886.825 658.795C817.358 652.531 740.081 643.452 677.9 680.629C661.184 690.623 622.416 723.478 602.422 721.675C588.163 720.389 662.925 697.683 634.86 680.337C625.524 674.567 612.106 674.513 602.276 670.221C592.072 665.766 587.928 657.961 576.161 654.707C560.779 650.454 542.377 656.774 526.215 651.4C508.813 645.613 493.975 633.32 478.409 624.36C456.926 611.992 444.14 595.35 435.224 572.614C431.009 561.866 422.58 540.371 422.58 540.371C422.58 540.371 424.525 545.331 425.498 547.812C429.507 558.036 435.663 566.436 439.65 576.602C450.344 603.874 461.995 630.203 483.175 651.108C487.368 655.246 524.553 677.519 524.707 654.853C524.851 633.671 501.038 617.214 489.936 602.67C477.148 585.919 468.078 564.786 456.671 547.034C448.744 534.696 430.098 526.091 430.216 508.76C430.269 500.823 451.382 490.063 458.034 492.128C467.664 495.117 476.533 501.289 487.164 500.736C513.828 499.349 584.389 485.779 603.347 512.409C609.595 521.183 601.964 541.014 601.11 550.488C597.866 586.468 596.237 665.728 649.304 666.088C657.167 666.141 671.546 657.366 679.067 654.416C710.222 642.199 707.792 629.641 712.575 601.213C714.465 589.983 715.776 553.65 734.655 555.352C748.408 556.593 767.196 587.883 776.43 596.204C809.365 625.882 870.192 664.658 907.397 616.388C930.12 586.907 855.815 506.319 836.541 486.781C826.006 476.103 813.228 467.378 802.109 457.358C800.634 456.029 797.684 453.371 797.684 453.371C797.684 453.371 804.29 457.555 808.042 457.893C820.055 458.977 832.386 465.167 844.614 463.584C858.205 461.824 870.068 445.462 880.408 438.101C888.83 432.105 901.749 432.425 910.171 426.429C925.894 415.235 954.25 381.913 950.683 361.894C943.023 318.903 826.675 320.303 793.6 326.196C757.6 332.611 725.148 338.731 689.526 352.7C678.232 357.129 660.361 368.744 647.896 363.302C638.643 359.261 641.792 345.749 633.209 340.444C626.509 336.303 620.853 339.16 614.437 336.359C585.654 323.791 553.235 316.154 520.577 315.932C489.449 315.721 451.436 332.194 420.588 323.664C404.073 319.097 387.896 306.884 372.247 302.557C361.016 299.451 345.312 305.186 334.168 300.32C320.162 294.204 315.551 270.625 309.22 258.593C297.137 235.629 284.843 211.956 271.093 190.555C263.569 178.847 262.4 162.992 255.531 150.871C229.598 105.115 213.336 51.374 184.772 6.91799C163.49-26.2026 55.4147-79.7126 21.1725-89.1814" fill="#174006" fill-rule="nonzero" opacity="1" stroke="#2f411f" stroke-linecap="round" stroke-linejoin="round" stroke-width="19.8801" vectornator:layerName="Curve 100"/>
<path d="M338.942 300.544C352.464 293.784 370.428 272.74 386.441 272.74C393.337 272.74 382.967 295.524 395.708 291.276C404.16 288.459 439.466 262.049 447.841 270.423C451.758 274.341 444.594 289.653 447.841 291.276C452.728 293.72 486.388 263.578 503.448 269.265C512.478 272.275 500.831 295.953 509.241 294.752C520.371 293.162 533.906 275.721 545.154 278.533C553.089 280.517 541.865 293.78 545.154 297.069C547.338 299.253 571.397 287.398 577.592 293.593C583.055 299.057 573.156 316.933 581.067 317.922C595.187 319.687 628.343 291.838 638.992 298.227C647.117 303.102 623.206 323.205 627.407 329.507C632.045 336.464 651.906 321.483 658.686 324.873C665.308 328.183 656.877 352.182 666.796 353.835C681.991 356.367 708.724 310.971 722.403 310.971C730.426 310.971 718.426 334.295 720.086 337.616C723.806 345.055 756.404 314.365 761.792 313.288C776.689 310.308 764.445 326.031 773.377 326.031C782.519 326.031 787.742 315.914 796.547 314.446C803.623 313.267 804.412 317.109 809.29 317.922C814.849 318.848 826.671 310.968 831.301 307.495C837.412 302.912 850.532 288.612 860.264 295.91C863.557 298.38 848.533 316.212 853.313 319.08C855.443 320.358 894.363 301.418 884.592 314.446C870.454 333.297 850.215 324.681 830.143 327.19C804.44 330.402 779.397 336.203 753.682 338.774C734.429 340.7 711.846 347.7 693.441 353.835C683.737 357.07 671.925 363.906 661.003 360.786C651.061 357.945 650.543 347.225 645.943 341.091C641.689 335.42 637.088 345.043 634.358 345.725C633.395 345.966 619.963 325.868 615.822 322.556C614.969 321.873 613.505 321.331 613.505 320.239C613.505 319.59 621.988 315.231 622.773 314.446C623.931 313.288 627.714 310.238 626.248 310.971C617.609 315.29 606.829 322.124 597.286 323.714C582.234 326.223 541.09 309.867 525.46 305.178C519.923 303.517 511.587 300.871 505.765 301.703C503.062 302.089 499.973 307.495 499.973 307.495C499.973 307.495 500.207 303.095 498.814 301.703C494.849 297.737 484.224 296.851 481.437 291.276C475.629 279.661 500.644 282.831 483.754 291.276C454.978 305.664 423.399 294.752 393.391 294.752C389.9 294.752 362.741 299.188 362.112 301.703C359.579 311.837 405.88 302.966 407.293 302.861C412.685 302.462 418.112 303.107 423.512 302.861C438.817 302.166 437.414 297.879 437.414 301.703C437.414 306.866 399.457 314.596 392.233 316.763C391.406 317.011 389.53 317.149 389.916 317.922C392.679 323.448 402.327 318.738 408.452 317.922C428.314 315.273 447.423 310.726 467.535 309.812C471.796 309.619 477.912 307.422 480.278 310.971C482.484 314.279 473.624 315.506 469.852 316.763C461.226 319.638 460.163 318.878 451.316 320.239C448.537 320.666 440.395 322.556 443.207 322.556C447.485 322.556 451.904 318.933 455.95 317.922C478.476 312.29 502.384 302.642 525.46 300.544C529.253 300.199 550.946 302.747 550.946 294.752C550.946 293.888 549.476 293.763 548.629 293.593C539.577 291.783 527.634 294.244 519.667 298.227C518.895 298.613 516.964 298.613 517.35 299.386C517.938 300.561 546.739 303.898 552.105 306.337C570.532 314.713 557.395 321.113 563.69 329.507C566.173 332.818 592.268 326.148 599.603 328.348C607.114 330.601 626.698 332.048 630.882 334.141C632.427 334.913 631.506 338.436 633.199 338.774C640.282 340.191 650.194 332.982 657.528 332.982C663.005 332.982 664.845 341.091 670.271 341.091C679.938 341.091 686.972 319.08 698.075 319.08C703.399 319.08 702.368 324.9 706.184 327.19C710.43 329.737 717.608 328.348 722.403 328.348" fill="none" opacity="1" stroke="#234813" stroke-linecap="round" stroke-linejoin="round" stroke-width="19.8801" vectornator:layerName="Curve 101"/>
<path d="M877.749 306.972C878.294 300.097 897.792 302.942 902.171 306.242C906.627 309.6 905.525 315.821 911.75 317.469C919.323 319.475 943.68 313.764 948.794 320.785C951.186 324.069 944.753 328.038 947.577 331.348C950.584 334.872 969.44 341.288 968.842 348.831C968.616 351.691 966.069 353.381 964.694 355.545C963.078 358.089 957.572 373.797 956.669 377.559C955.743 381.414 960.5 383.178 959.937 386.764C959.024 392.575 953.112 395.384 951.958 400.979C951.294 404.2 953.194 407.22 952.548 410.352C951.167 417.045 939.77 419.176 934.709 421.692C932.865 422.609 929.036 427.39 929.84 425.494C934.124 415.383 943.292 407.59 947.688 397.214C955.415 378.981 936.068 356.684 922.509 347.444C903.998 334.828 885.651 326.64 862.944 328.069C861.159 328.181 844.462 329.186 844.684 332.713C844.743 333.636 848.555 333.971 849.338 334.034C861.645 335.009 873.848 334.37 886.214 334.671C890.895 334.785 895.589 334.879 900.241 335.401C909.988 336.496 919.742 339.755 928.717 343.558C931.302 344.653 937.761 349.733 936.218 347.388C927.106 333.54 894.141 321.71 879.079 323.827C876.496 324.19 853.463 325.611 854.844 331.805C855.945 336.738 874.148 337.184 875.904 337.471C889.541 339.693 902.782 343.251 915.814 347.865C920.269 349.443 927.191 354.849 926.798 355.778C926.154 357.297 923.525 355.343 921.91 355.01C911.585 352.881 901.561 349.658 891.308 347.256C870.265 342.328 848.241 344.051 826.93 345.392C801.681 346.98 779.562 356.382 755.379 361.993C725.872 368.839 692.428 375.323 661.831 375.139C630.564 374.951 605.843 359.534 577.19 350.351C561.181 345.22 542.839 342.45 526.25 339.843C474.421 331.701 421.753 333.627 369.804 327.64C358.304 326.314 349.553 322.125 341.778 313.808C341.346 313.347 333.936 307.095 334.343 306.748C335.643 305.639 337.765 306.789 339.465 306.963C342.384 307.263 370.956 308.671 372.174 309.745C373.797 311.176 368.726 312.427 366.752 313.313C363.687 314.687 356.416 316.455 353.932 318.959C352.138 320.767 362.533 320.29 367.641 318.903C381.558 315.124 396.667 310.254 409.415 303.369C421.244 296.979 415.637 286.599 430.531 284.294C435.959 283.454 449.93 281.177 454.569 286.008C458.514 290.117 425.117 308.183 443.415 313.866C454.464 317.298 469.458 313.865 480.525 313.951C501.549 314.114 523.165 317.998 543.901 321.256C554.693 322.952 564.36 326.667 574.353 330.902C578.957 332.852 583.683 334.536 588.165 336.754C589.255 337.294 592.433 338.447 591.246 338.711C588.608 339.3 572.458 335.805 571.694 335.64C557.09 332.487 542.676 328.906 527.851 326.837C521.402 325.937 505.904 325.575 509.273 330.695C512.552 335.678 525.153 334.808 530.801 335.255C552.975 337.012 574.691 340.343 596.471 344.836C619.913 349.671 644.276 363.229 668.321 362.9C730.261 362.052 789.618 339.137 851.754 346.787C852.945 346.934 855.982 347.413 855.069 348.192C852.859 350.078 846.509 347.702 843.72 347.293C839.832 346.723 835.972 345.889 832.052 345.607C822.965 344.954 811.219 345.497 802.274 346.674C799.577 347.029 796.957 347.833 794.324 348.519C793.777 348.662 792.227 349.368 792.751 349.156C802.602 345.169 816.97 347.56 827.333 347.517C861.177 347.379 908.281 347.626 926.123 383.515C929.896 391.103 911.92 394.518 918.866 400.641" fill="none" opacity="1" stroke="#234813" stroke-linecap="round" stroke-linejoin="round" stroke-width="19.8801" vectornator:layerName="Curve 102"/>
<path d="M10.5214-5.83651C7.99584-7.6938 11.2468 6.49602 11.6874 11.2421C12.8667 23.9486 12.7341 38.6569 15.5791 50.9136C17.7627 60.3213 23.6727 69.0515 32.7523 59.7995C34.1653 58.3596 35.1052 54.0431 36.7304 55.2383C38.2804 56.3781 36.498 69.3532 36.3839 71.8285C35.8163 84.1354 30.6592 101.147 39.2751 112.012C44.5438 118.656 55.7113 104.725 58.8431 108.31C60.5895 110.309 52.4447 137.743 57.7089 148.028C64.1336 160.581 81.3231 144.831 84.3745 150.793C86.3056 154.566 75.306 173.489 78.6555 184.021C84.5853 202.667 99.1739 180.625 99.736 180.807C100.008 180.895 96.1529 198.974 95.8997 200.446C94.2086 210.271 105.818 212.425 106.07 212.916C107.094 214.917 102.068 214.964 100.067 215.988C94.2341 218.973 87.4674 221.525 82.0589 225.205C72.0298 232.028 52.2186 255.372 50.7929 267.72C50.0569 274.096 62.8279 271.188 64.8938 270.604C66.5059 270.148 70.4345 268.962 69.9197 270.556C67.5448 277.911 50.3735 285.724 44.4673 289.896C38.3664 294.205 35.691 304.144 33.6042 310.606C29.0461 324.722 51.7044 316.37 53.8024 320.469C55.3827 323.556 44.8447 335.195 43.4041 337.154C35.8807 347.384 26.5499 360.763 25.656 374.013C24.8358 386.171 43.3905 381.16 41.8524 385.924C37.7358 398.672 9.18636 430.98 21.8042 445.423C27.0172 451.391 37.5181 436.895 40.8601 440.72C42.4817 442.576 34.6893 457.244 33.9988 459.382C30.306 470.818 25.6439 495.671 33.936 506.128C41.1393 515.212 48.3694 493.658 49.4075 494.422C56.7219 499.801 51.9473 535.406 62.4452 544.562C70.4576 551.551 77.012 532.39 78.8935 529.831C79.3898 529.156 79.6512 527.398 80.3823 527.807C87.0081 531.511 87.2125 550.361 98.1858 550.258C103.568 550.207 108.674 528.121 110.002 524.01C110.259 523.212 110.694 521.728 111.491 521.985C115.853 523.394 119.315 538.119 127.199 535.408C143.436 529.826 139.923 498.595 140.921 498.084C146.26 495.352 152.074 507.524 158.536 500.432C165.261 493.051 169.159 474.882 168.257 465.156C168.005 462.44 165.057 459.326 166.673 457.129C167.967 455.369 170.156 459.924 172.235 460.595C174.513 461.33 180.089 461.791 181.774 459.5C188.263 450.677 181.425 420.95 183.397 418.268C185.005 416.082 195.902 424.87 199.987 418.615C205.529 410.131 205.888 396.888 204.217 387.412C202.531 377.848 198.203 371.552 199.538 370.869C200.411 370.422 204.98 375.292 207.101 373.311C213.718 367.129 213.314 353.263 212.867 345.109C212.515 338.698 209.299 323.337 211.189 327.03C211.772 328.169 211.751 333.415 211.772 335.569" fill="none" opacity="1" stroke="#234813" stroke-linecap="round" stroke-linejoin="round" stroke-width="19.8801" vectornator:layerName="Curve 103"/>
<path d="M107.582 213.404C101.838 216.344 98.6971 233.457 95.2539 238.652C92.1316 243.362 83.7175 251.915 77.293 252.895C74.3166 253.349 70.4142 251.278 67.7533 253.99C65.7126 256.069 57.6541 270.485 62.4045 273.14C70.626 277.736 82.0931 256.368 87.8805 256.314C91.482 256.28 73.538 290.972 72.6455 293.149C70.6421 298.035 48.2465 313.887 53.7787 317.956C58.1599 321.178 67.2691 311.895 67.8796 320.839C68.3008 327.008 45.3294 357.053 41.6869 368.333C40.1859 372.981 35.4875 383.659 40.3163 382.922C45.0743 382.197 48.7464 365.224 51.1794 362.212C52.15 361.011 53.5667 358.082 54.6691 359.163C59.0139 363.427 55.4784 377.347 53.8815 382.292C49.1214 397.033 43.4668 414.417 37.2285 428.691C36.7969 429.679 24.1564 457.7 32.3917 448.842C37.1833 443.688 39.5079 422.091 46.6973 420.057C49.6699 419.216 49.0817 426.009 48.7928 429.085C47.6266 441.498 46.2057 453.84 47.6349 466.291C50.0994 487.761 52.1261 464.365 56.2688 475.76C57.3814 478.82 62.6925 499.826 66.045 499.794C68.4248 499.772 69.4981 494.207 72.5834 500.235C75.2758 505.496 73.882 512.757 74.2614 518.314C74.3755 519.986 73.1352 524.536 74.3087 523.34C77.231 520.362 84.249 482.713 93.0808 488.482C99.8768 492.921 99.7708 508.622 100.368 515.053C101.012 521.994 103.14 528.784 103.511 528.594C110.536 524.999 109.658 493.231 114.232 492.806C120.382 492.236 120.387 515.71 124.497 515.328C128.196 514.985 135.631 478.261 137.66 471.978C138.148 470.466 137.536 467.455 139.125 467.441C141.503 467.418 152.964 505.276 158.441 490.38C165.094 472.284 164.126 449.075 165.413 429.998C165.469 429.162 165.208 431.705 165.436 432.511C166.157 435.06 167.081 437.549 168.02 440.026C168.684 441.778 169.727 443.361 170.58 445.029C171.092 446.029 171.522 448.984 172.116 448.03C182.656 431.118 170.217 401.243 174.015 382.67C174.24 381.569 175.268 384.583 175.551 385.671C176.147 387.964 176.136 390.379 176.622 392.698C177.211 395.504 181.626 415.772 183.373 415.755C190.569 415.688 188.141 373.696 187.95 367.962C187.871 365.594 187.149 363.289 186.879 360.935C186.783 360.103 186.729 357.594 186.855 358.422C187.802 364.63 189.231 370.763 190.046 376.99C190.074 377.204 189.732 390.178 191.164 389.043C197.446 384.061 199.549 334.133 200.137 327.637C200.38 324.946 202.297 321.991 201.066 319.586C199.973 317.45 199.786 324.243 199.624 326.636C199.343 330.815 199.791 335.013 199.743 339.201C199.66 346.412 196.534 362.532 200.026 369.356C200.88 371.024 200.662 365.664 200.98 363.818C201.933 358.28 203.143 352.781 203.839 347.205C204.521 341.738 205.644 325.376 205.58 318.538C205.569 317.353 206.215 314.846 205.044 315.025C198.153 316.075 196.139 363.084 196.513 369.892" fill="none" opacity="1" stroke="#234813" stroke-linecap="round" stroke-linejoin="round" stroke-width="19.8801" vectornator:layerName="Curve 104"/>
<path d="M202.318 292.432C199.326 286.585 193.26 267.333 202.76 285.893C207.946 296.027 211.031 308.073 217.633 317.419C218.116 318.104 218.86 318.651 219.657 318.908C223.69 320.211 219.531 305.506 223.564 306.808C226.824 307.861 237.6 349.475 247.512 341.265C251.299 338.128 252.799 327.4 257.422 326.092C267.087 323.359 265.176 345.213 263.173 349.662C256.125 365.319 234.404 378.703 232.443 395.691C232.314 396.807 234.584 394.879 235.444 394.155C238.436 391.636 241.035 388.682 243.913 386.033C247.662 382.581 252.059 378.719 256.383 375.863C257.321 375.244 259.609 373.226 259.384 374.327C256.783 387.05 230.233 411.643 219.626 422.451C218.097 424.01 209.369 429.545 210.669 432.086C212.555 435.769 219.07 430.176 222.186 427.454C231.591 419.238 237.393 409.32 244.543 399.598C245.343 398.51 247.699 396.72 246.52 396.061C241.572 393.295 236.848 402.061 232.537 405.743C225.589 411.677 193.207 437.436 199.271 449.282C202.945 456.462 223.592 433.125 226.235 430.431C228.477 428.147 231.245 420.484 232.703 423.333C234.611 427.062 228.098 430.377 225.259 433.456C222.667 436.268 175.136 480.628 197.506 475.436" fill="none" opacity="1" stroke="#234813" stroke-linecap="round" stroke-linejoin="round" stroke-width="19.8801" vectornator:layerName="Curve 105"/>
<path d="M228.796 435.433C216.361 452.342 208.429 468.698 193.063 484.023C185.484 491.582 168.627 502.372 168.217 514.414C167.739 528.452 198.073 509.517 201.327 507.569C203.282 506.398 204.916 504.752 206.818 503.496C207.755 502.877 210.89 501.619 209.819 501.96C194.361 506.876 144.873 542.914 146.538 560.861C147.311 569.185 174.955 552.63 179.112 550.502C182.447 548.795 190.824 548.716 189.117 545.381C187.071 541.383 167.447 560.781 166.154 562.184C160.098 568.753 133.325 598.923 133.399 606.724C133.427 609.702 138.852 606.458 139.425 606.165C143.761 603.946 148.272 602.041 152.431 599.508C162.541 593.351 172.308 583.299 183.91 579.609C186.854 578.673 179.31 583.736 176.93 585.707C172.225 589.604 167.426 593.674 162.971 597.901C148.91 611.242 130.654 626.14 122.189 644.025C111.959 665.639 147.197 644.523 153.321 640.716C156.203 638.925 158.911 636.864 161.813 635.107C163.416 634.137 167.391 630.764 166.816 632.547C165.055 638 157.799 639.623 153.345 643.229C143.159 651.476 134.776 659.996 126.963 670.619C126.595 671.12 116.495 685.769 120.59 687.769C130.376 692.547 148.897 672.293 155.582 667.334C158.008 665.535 163.586 659.261 163.074 662.237C162.874 663.402 145.427 683.711 145.184 684.019C136.82 694.62 120.269 712.653 121.969 727.464C123.479 740.619 154.048 704.88 154.425 704.54C156.117 703.014 160.177 698.204 159.915 700.467C159.068 707.807 151.708 712.77 148.028 719.177C140.372 732.506 134.057 745.192 129.815 760.061C128.704 763.958 124.565 770.893 128.421 772.138C132.855 773.57 153.908 747.112 156.804 743.723C158.883 741.29 161.167 739.038 163.271 736.625C164.05 735.733 165.582 732.918 165.761 734.089C167.771 747.276 146.235 767.283 152.668 784.978C155.484 792.722 176.329 757.046 178.515 754.074C179.216 753.12 179.819 751.549 181.004 751.538C183.123 751.518 179.41 755.499 179.05 757.588C178.627 760.046 178.615 771.883 182.217 773.642C189.758 777.324 197.507 759.706 199.642 755.886C201.215 753.073 205.075 744.233 204.085 747.299C201.197 756.242 198.817 768.288 210.836 770.357" fill="none" opacity="1" stroke="#234813" stroke-linecap="round" stroke-linejoin="round" stroke-width="19.8801" vectornator:layerName="Curve 106"/>
<path d="M192.986 742.88C189.291 749.489 179.9 781.117 188.385 788.161C192.86 791.875 197.898 781.163 201.344 776.478C205.023 771.475 225.992 745.36 216.555 737.129C213.986 734.889 208.626 746.107 208.599 746.252C207.205 753.58 213.104 792.092 219.588 792.391C233.773 793.045 241.412 745.871 245.269 743.896C247.674 742.665 244.57 749.255 244.34 751.947C243.924 756.799 244.602 761.723 245.482 766.513C247.867 779.503 249.838 784.484 261.678 778.424" fill="none" opacity="1" stroke="#234813" stroke-linecap="round" stroke-linejoin="round" stroke-width="19.8801" vectornator:layerName="Curve 107"/>
<path d="M174.015 543.01C159.025 563.394 112.389 585.859 114.855 612.428C116.548 630.671 151.938 605.195 154.503 606.023C158.139 607.197 148.544 610.807 145.523 613.144C143.079 615.035 140.668 616.999 138.543 619.242C133.717 624.335 109.495 654.353 116.328 662.175C123.033 669.849 146.437 656.865 146.437 656.865C146.437 656.865 134.484 666.683 128.988 672.108C120.523 680.465 110 689.638 107.655 701.964C103.777 722.352 127.118 705.468 135.321 704.217C138.486 703.735 130.844 708.808 128.854 711.315C125.037 716.122 121.526 723.411 120.48 729.489C118.402 741.562 131.026 743.392 139.725 744.889" fill="none" opacity="1" stroke="#234813" stroke-linecap="round" stroke-linejoin="round" stroke-width="19.8801" vectornator:layerName="Curve 108"/>
<path d="M243.734 765.5C240.574 761.52 241.347 817.989 245.88 819.092C258.571 822.18 260.289 799.01 260.804 792.354C261.682 781.018 261.66 787.142 261.426 778.674C261.411 778.119 261.444 776.458 261.38 777.009C260.004 789.002 260.458 832.185 275.633 834.599C284.639 836.032 285.008 815.601 284.979 811.015C284.916 801.024 283.098 799.322 282.992 799.406C274.986 805.764 290.231 858.43 301.833 854.204C315.299 849.298 313.356 825.771 311.08 814.96C310.537 812.377 307.756 809.749 308.871 807.356C309.168 806.72 309.391 808.663 309.592 809.336C310.248 811.529 310.565 813.835 311.441 815.95C312.126 817.604 313.33 818.992 314.234 820.538C317.353 825.871 327.438 842.615 335.708 837.94C344.686 832.865 333.746 787.721 327.578 784.846C326.941 784.55 327.987 786.197 328.299 786.826C329.599 789.451 331.516 791.199 333.478 793.348C336.537 796.699 344.576 808.43 350.763 803.868C365.926 792.686 348.452 744.372 333.358 740.699C332.151 740.406 334.063 743.323 335.114 743.983C337.647 745.573 340.471 746.693 342.902 748.434C346.356 750.907 358.022 763.546 360.41 754.949C363.827 742.647 351.795 723.217 345.627 714.368C341.388 708.286 337.356 703.162 331.534 698.762C330.345 697.864 328.112 695.524 327.483 696.874C325.725 700.647 333.636 702.48 336.712 705.284C337.935 706.398 350.808 717.358 352.602 713.509C355.036 708.286 347.329 697.174 345.391 693.714C337.02 678.775 327.334 660.993 314.181 649.588C310.678 646.551 334.475 682.938 338.848 661.904C342.48 644.431 320.388 625.27 311.82 612.331C308.505 607.324 305.466 602.057 301.417 597.622C300.669 596.802 298.769 594.065 299.346 595.013C302.072 599.492 314.68 616.775 319.647 606.116" fill="none" opacity="1" stroke="#234813" stroke-linecap="round" stroke-linejoin="round" stroke-width="19.8801" vectornator:layerName="Curve 109"/>
<path d="M321.378 801.679C317.189 801.795 347.831 812.318 345.454 804.681C341.353 791.507 329.741 766.954 316.585 760.823C314.267 759.744 319.262 765.241 321.088 767.031C322.77 768.679 324.336 770.474 326.221 771.888C328.671 773.726 345.721 785.268 347.734 778.625C351.576 765.941 333.484 744.218 326.875 735.213C324.903 732.527 317.595 724.671 314.178 721.901C313.599 721.432 312.467 720.282 312.152 720.957C310.09 725.381 340.776 745.989 345.871 747.352C347.596 747.814 353.704 746.783 353.429 743.478C352.526 732.637 331.02 706.344 324.514 697.956C319.845 691.936 315.173 686.913 310.06 681.36C309.154 680.376 306.855 677.18 307.313 678.436C309.738 685.094 341.202 712.709 346.165 709.688C348.848 708.055 334.052 687.24 332.831 685.396C324.276 672.476 314.461 657.636 303.11 646.894C302.139 645.975 304.973 648.815 305.857 649.818C307.84 652.069 309.64 654.483 311.711 656.654C314.362 659.434 335.01 677.517 338.809 672.568C341.573 668.968 335.491 657.269 335.38 657.001C329.895 643.695 319.439 617.524 305.115 610.849C304.293 610.467 306.968 614.879 311.644 618.001C315.59 620.636 328.707 630.344 331.4 621.454C333.46 614.654 306.039 564.96 298.158 564.055C297.591 563.99 302.674 570.015 303.337 570.577C305.876 572.725 317.593 583.882 321.658 582.401C327.998 580.091 300.039 523.055 309.76 549.739" fill="none" opacity="1" stroke="#234813" stroke-linecap="round" stroke-linejoin="round" stroke-width="19.8801" vectornator:layerName="Curve 110"/>
<path d="M322.411 561.386C327.354 581.702 332.946 602.617 340.085 622.214C341.652 626.516 341.38 633.393 345.762 634.721C348.653 635.596 349.766 630.052 350.888 627.248C353.334 621.132 360.53 597.537 353.253 592.193C351.241 590.716 350.766 596.764 350.782 599.259C350.818 605.05 352.059 610.771 352.591 616.537C353.607 627.542 357.631 640.536 363.185 650.235C364.514 652.556 366.282 657.269 368.678 656.082C375.819 652.544 373.54 627.967 374.059 621.61C374.965 610.488 374.843 613.79 374.589 604.6C374.574 604.045 374.778 602.432 374.543 602.935C368.711 615.451 377.28 652.227 380.923 665.075C381.62 667.533 384.519 679.305 389.976 679.154C395.814 678.993 399.868 633.759 395.572 628.348C394.912 627.517 393.386 634.784 394.006 644.053C394.455 650.774 399.626 682.396 407.753 683.329C413.884 684.033 411.551 661.392 411.429 659.568C411.259 657.017 411.18 654.457 410.885 651.918C410.742 650.685 410.259 647.04 410.118 648.274C408.809 659.676 427.871 711.972 426.827 674.138" fill="none" opacity="1" stroke="#234813" stroke-linecap="round" stroke-linejoin="round" stroke-width="19.8801" vectornator:layerName="Curve 111"/>
<path d="M437.123 684.95C430.187 675.139 375.044 717.643 380.118 720.758C392.449 728.327 412.272 716.395 425.044 714.442C425.85 714.319 423.793 715.523 423.048 715.853C419.978 717.217 416.85 718.469 413.654 719.501C410.342 720.571 406.847 721.026 403.553 722.151C390.184 726.72 373.516 735.766 363.514 745.966C353.196 756.489 383.404 755.346 386.485 755.171C389.214 755.016 396.208 751.73 394.59 753.932C383.022 769.675 338.297 781.832 337.654 804.658C337.405 813.512 375.855 786.711 382.167 795.641C384.847 799.431 365.809 810.199 364.617 811.041C350.921 820.723 327.071 843.233 332.115 862.455C335.132 873.954 362.826 852.437 366.7 849.979C370.157 847.786 380.009 842.619 375.974 841.927C360.498 839.269 342.366 871.108 340.822 883.24C340.708 884.137 338.297 901.998 343.713 902.15C354.333 902.449 371.313 882.644 377.231 875.462C378.299 874.166 381.487 873.014 380.517 871.642C378.387 868.63 373.176 874.147 370.83 876.994C366.599 882.128 349.881 920.865 354.829 924.226C362.628 929.524 390.925 896.599 395.625 890.896C399.233 886.517 408.346 881.368 405.071 876.735C403.834 874.985 390.151 889.809 389.516 890.724C383.497 899.397 373.515 919.948 378.384 930.024C382.364 938.257 413.484 899.229 414.655 892.41C415.272 888.819 410.725 898.616 409.493 902.045C408.992 903.441 400.531 927.191 401.699 927.012C417.746 924.559 431.42 893.619 436.731 881.294C438.699 876.727 444.643 871.314 441.772 867.253C441.402 866.73 438.478 880.636 438.434 881.586C438.373 882.916 437.104 904.459 440.74 903.903C453.912 901.889 472.901 847.246 473.173 837.571C473.254 834.692 471.495 843.216 471.711 846.089C471.916 848.814 472.712 851.47 472.95 854.193C473.235 857.454 471.585 881.433 478.371 878.798C496.677 871.69 497.722 843.829 499.361 828.038C500.074 821.176 500.915 827.578 498.707 816.527C498.455 815.264 496.845 811.776 497.589 812.828C507.668 827.086 496.707 879.882 519.338 839.36C522.271 834.108 524.743 828.612 527.374 823.203C528.81 820.249 530.149 817.249 531.537 814.273" fill="none" opacity="1" stroke="#234813" stroke-linecap="round" stroke-linejoin="round" stroke-width="19.8801" vectornator:layerName="Curve 112"/>
<path d="M483.265 848.476C482.364 849.883 478.354 869.192 486.239 866.522C492.083 864.543 494.928 845.769 488.005 849.897C484.228 852.149 477.666 872.094 492.881 858.668" fill="none" opacity="1" stroke="#234813" stroke-linecap="round" stroke-linejoin="round" stroke-width="19.8801" vectornator:layerName="Curve 113"/>
<path d="M341.865 854.391C343.603 856.534 348.923 841.033 348.315 841.167C347.658 841.311 341.37 859.576 339.287 862.829C338.921 863.401 340.062 861.709 340.387 861.112C341.583 858.913 342.769 856.707 343.846 854.448C345.303 851.395 348.757 844.711 348.681 840.594C348.644 838.568 347.244 834.234 345.568 835.373C340.188 839.025 340.238 852.383 341.865 854.391Z" fill="none" opacity="1" stroke="#234813" stroke-linecap="round" stroke-linejoin="round" stroke-width="19.8801" vectornator:layerName="Curve 114"/>
<path d="M528.735 821.536C531.579 835.579 541.252 881.288 552.429 886.843C556.849 889.039 559.25 863.184 559.715 859.875C560.042 857.546 560.189 855.193 560.573 852.873C560.736 851.889 560.984 849.057 561.354 849.984C567.468 865.308 562.389 904.384 582.418 913.546C588.328 916.249 591.819 878.932 596.003 886.213C602.45 897.432 602.37 918.08 607.747 930.723C608.825 933.257 611.93 946.183 617.223 941.551C625.088 934.668 621.257 917.564 627.736 910.288C628.725 909.177 628.327 913.203 628.622 914.661C629.561 919.3 629.882 924.165 631.018 928.743C634.093 941.133 638.832 956.228 649.217 964.662C659.196 972.766 657.033 937.776 657.283 934.805C657.394 933.479 656.996 931.029 658.324 930.952C659.732 930.871 659.825 933.348 660.432 934.622C662.951 939.906 676.351 978.605 682.146 976.658C687.291 974.929 689.221 952.208 688.728 948.467C688.378 945.809 686.02 938.09 686.697 940.684C689.298 950.649 708.793 997.665 720.516 995.291C725.208 994.341 721.519 976.791 721.164 973.765C720.919 971.676 719.046 966.303 720.799 967.465C732.574 975.275 731.724 1007.86 749.515 1010.36C758.567 1011.63 747.307 987.198 746.388 983.679C745.711 981.085 741.769 975.197 744.357 975.897C749.322 977.238 771.222 1018.23 779.71 1013.35C784.082 1010.84 770.712 989.277 772.028 984.405C772.998 980.816 777.974 988.97 780.358 991.823C784.118 996.322 792.152 1010.84 798.868 1011.29C804.887 1011.69 798.368 992.2 798.032 991.431C796.995 989.05 791.615 983.327 793.555 985.054C802.274 992.818 814.991 1015.31 828.542 1016.21C832.145 1016.45 819.983 993.051 819.559 992.079C818.601 989.881 814.874 985.398 817.268 985.26C822.106 984.979 842.122 1010.85 849.781 1006.44C860.976 1000.01 827.141 963.78 847.801 983.174C849.872 985.119 852.417 986.488 854.725 988.145" fill="none" opacity="1" stroke="#234813" stroke-linecap="round" stroke-linejoin="round" stroke-width="19.8801" vectornator:layerName="Curve 115"/>
<path d="M668.033 929.441C660.555 933.738 679.479 946.107 680.32 945.162C682.597 942.605 675.862 939.81 672.953 938.005C672.059 937.45 669.309 935.987 670.324 936.261C676.631 937.965 681.667 942.749 687.322 946.02" fill="none" opacity="1" stroke="#234813" stroke-linecap="round" stroke-linejoin="round" stroke-width="19.8801" vectornator:layerName="Curve 116"/>
<path d="M840.538 983.279C844.508 984.984 890.664 1003.04 891.219 990.77C891.767 978.67 864.491 963.542 856.232 959.616C855.631 959.33 854.748 958.599 854.306 959.096C853.811 959.651 854.309 960.682 854.748 961.282C859.679 968.013 897.536 976.648 897.724 966.692C897.871 958.931 861.967 934.353 855.917 937.829C852.977 939.519 861.682 941.803 865.028 942.357C869.142 943.039 885.842 941.058 885.747 934.52C885.627 926.229 852.797 913.992 845.711 914.403C840.845 914.685 874.215 916.097 870.465 910.756C861.533 898.037 835.229 892.97 821.5 889.261C817.969 888.307 810.906 886.399 810.906 886.399C810.906 886.399 850.559 896.716 847.478 884.911C844.313 872.785 816.979 869.742 807.624 867.944C798.828 866.253 783.531 865.01 786.097 867.295C788.767 869.673 811.68 864.44 803.224 857.454C790.824 847.21 770.434 843.512 755.145 840.332C750.9 839.449 746.642 838.621 742.364 837.912C739.339 837.411 730.62 835.802 733.176 837.497C738.458 841.001 770.332 839.574 767.639 832.339C764.282 823.323 725.36 814.881 716.41 815.399C715.414 815.457 718.309 816.058 719.299 816.18C725.015 816.88 722.295 815.648 728.748 815.632C732.83 815.622 738.797 817.148 742.57 814.199C747.428 810.401 728.39 802.41 727.315 801.81C721.735 798.698 686.715 786.086 681.085 789.321C679.046 790.493 685.296 791.492 687.566 792.106C690.707 792.954 714.779 799.252 711.8 790.385C710.506 786.534 704.236 782.34 701.101 780.26C699.348 779.098 694.089 775.611 695.842 776.773C709.886 786.087 747.367 811.983 763.211 810.475C767.837 810.034 751.466 793.445 750.481 792.567C748.815 791.084 744.371 786.183 745.482 788.117C751.814 799.136 775.322 807.693 786.664 811.643C789.757 812.721 796.834 813.375 796.373 810.133C795.31 802.644 788.065 796.944 783.903 791.262C782.368 789.167 777.099 783.729 779.425 784.885C790.056 790.169 828.814 819.316 837.163 815.985C841.668 814.187 823.405 792.435 821.438 790.035C820.024 788.31 818.04 787.139 816.44 785.584C815.58 784.749 812.874 782.947 814.071 782.877C817.881 782.657 822.199 788.107 824.587 789.852C833.348 796.254 853.219 808.181 864.701 805.856C872.171 804.344 848.202 782.361 845.827 780.089C844.307 778.635 838.538 776.053 840.568 776.601C850.036 779.159 881.771 801.743 889.793 797.134C890.37 796.802 890.645 795.784 890.313 795.207C884.6 785.264 871.666 779.747 866.103 770.065C864.897 767.966 870.344 772.421 872.325 773.813C877.475 777.433 877.396 777.373 883.102 779.825C889.65 782.638 906.009 793.027 913.401 790.077C923.183 786.174 889.324 764.971 885.338 763.894C883.308 763.345 888.782 766.318 890.597 767.381C892.06 768.239 893.621 768.918 895.152 769.646C900.391 772.136 933.36 785.472 932.975 778.83C932.492 770.499 919.393 763.33 913.502 759.101C910.939 757.262 908.409 755.334 905.615 753.87C905.025 753.562 903.477 752.719 903.688 753.35C906.976 763.135 956.664 777.441 937.476 758.344" fill="none" opacity="1" stroke="#234813" stroke-linecap="round" stroke-linejoin="round" stroke-width="19.8801" vectornator:layerName="Curve 117"/>
<path d="M918.213 753.14C924.354 763.828 957.916 767.946 966.708 761.074C975.438 754.25 938.697 734.486 933.126 732.367C932.83 732.254 928.339 730.062 929.716 733.512C933.861 743.9 963.325 741.045 971.209 740.588C973.512 740.455 982.361 738.256 980.032 734.704C976.682 729.594 942.132 705.295 936.846 714.77C932.9 721.844 979.46 722.775 971.752 711.799C967.094 705.165 929.237 690.542 923.413 695.64C921.411 697.392 928.457 697.727 931.118 697.721C933.245 697.716 960.64 694.518 955.95 689.962C944.236 678.582 924.855 674.286 909.537 674.323C907.863 674.327 897.376 673.431 896.678 676.016C896.45 676.861 903.873 672.333 904.799 668.909" fill="none" opacity="1" stroke="#234813" stroke-linecap="round" stroke-linejoin="round" stroke-width="19.8801" vectornator:layerName="Curve 118"/>
<path d="M199.891 11.365C199.573 11.0825 195.095 7.21863 195.856 7.17457C205.604 6.60954 222.707 28.3691 226.808 34.1382C229.128 37.402 235.643 42.8929 232.171 44.888C225.28 48.8481 209.622 32.5957 202.912 30.7829C200.169 30.0419 207.646 33.9442 209.837 35.7539C213.85 39.0692 217.612 42.677 221.499 46.1386C226.465 50.5603 249.771 71.8752 249.224 77.3975C248.89 80.7724 242.448 77.056 239.073 76.7218C237.504 76.5665 223.603 76.9858 223.402 73.5218C223.171 69.5241 231.754 73.6758 235.22 75.681C246.942 82.4623 256.453 93.1832 264.949 103.348C267.68 106.615 275.854 111.032 272.499 113.655C268.013 117.161 252.265 106.246 248.238 104C245.757 102.616 238.571 98.2882 241.314 99.0292C247.941 100.82 286.96 134.828 279.478 141.376C271.738 148.15 257.793 135.5 254.514 130.498C253.347 128.717 249.876 125.064 251.963 124.641C258.966 123.223 281.929 148.784 286.247 154.572C290.028 159.64 292.441 167.463 292.053 167.508C285.012 168.334 278.033 162.181 272.608 159.155C270.267 157.849 267.601 157.225 265.163 156.11C263.916 155.54 260.382 154.789 261.571 154.106C265.5 151.848 277.825 163.902 279.272 165.089C287.271 171.647 313.498 187.292 312.256 199.835C311.802 204.422 284.184 199.781 284.325 192.29C284.422 187.15 302.997 200.668 304.473 201.867C311.46 207.541 330.522 220.011 329.829 230.419C329.523 235.015 302.731 222.905 300.753 219.463C300.256 218.598 302.781 219.739 303.642 220.244C306.094 221.68 308.259 223.558 310.567 225.215C312.875 226.872 315.203 228.501 317.491 230.186C320.759 232.592 344.066 252.905 341.181 257.254C339.167 260.292 309.932 245.559 306.846 242.811C304.35 240.589 313.211 244.916 316.217 246.376C320.209 248.315 324.197 250.294 327.958 252.648C333.77 256.287 341.465 261.807 344.358 268.447C348.984 279.065 321.331 270.631 320.827 271.391C320.675 271.621 335.438 285.595 337.228 287.189" fill="none" opacity="1" stroke="#234813" stroke-linecap="round" stroke-linejoin="round" stroke-width="19.8801" vectornator:layerName="Curve 119"/>
<path d="M429.263 513.846C432.762 517.976 475.693 526.674 475.038 534.607C474.911 536.14 465.207 538.602 464.105 538.871C462.096 539.361 456.069 540.831 458.078 540.341C469.846 537.47 497.849 545.654 502.18 557.519C503.471 561.055 496.163 562.978 494.059 563.492C492.283 563.925 486.825 564.458 488.601 564.025C495.073 562.446 518.971 570.72 520.502 576.996C522.503 585.199 499.176 576.188 500.013 574.811C501.095 573.03 504.08 575.781 506.022 576.538C513.755 579.55 522.817 582.584 528.9 588.517C532.293 591.826 529.379 596.596 525.649 598.091C522.913 599.187 513.937 597.197 516.81 597.853C523.066 599.28 537.578 601.182 539.505 609.078C540.746 614.166 530.124 618.136 526.863 616.154C524.767 614.88 531.89 615.922 534.195 616.76C536.046 617.433 557.703 626.731 554.427 630.981C551.767 634.431 542.094 632.791 538.624 631.644C536.854 631.059 535.166 630.226 533.369 629.733C532.58 629.517 530.131 629.725 530.925 629.531C540.581 627.175 556.509 629.679 564.938 634.802C571.129 638.565 573.598 648.805 563.359 647.959C562.63 647.899 561.658 647.531 561.484 646.82C560.164 641.408 588.359 654.197 588.901 654.499C598.101 659.634 602.551 667.913 604.945 677.725C605.134 678.498 609.673 691.157 605.478 683.182" fill="none" opacity="1" stroke="#234813" stroke-linecap="round" stroke-linejoin="round" stroke-width="19.8801" vectornator:layerName="Curve 120"/>
<path d="M434.223 501.46C434.19 501.606 474.209 523.163 476.985 522.957C482.578 522.541 469.91 502.518 470.148 501.476C470.759 498.797 474.697 504.563 476.892 506.217C478.214 507.213 479.546 508.197 480.824 509.248C484.871 512.574 508.393 532.057 510.98 531.425C513.704 530.761 505.808 510.575 507.524 510.716C517.434 511.535 527.578 525.658 537.514 528.943C538.29 529.199 539.534 529.843 539.958 529.145C542.557 524.868 534.948 512.876 532.735 509.355C531.167 506.859 525.516 501.376 528.453 501.619C532.526 501.956 534.408 507.235 537.623 509.759C544.185 514.91 553.568 521.473 562.578 520.433C569.658 519.616 556.651 506.398 555.704 505.347C554.31 503.799 549.38 501.303 551.404 500.809C555.068 499.915 576.199 516.44 587.623 515.121C595.837 514.172 566.101 497.494 583.727 505.694C584.899 506.24 586.104 506.711 587.292 507.219" fill="none" opacity="1" stroke="#234813" stroke-linecap="round" stroke-linejoin="round" stroke-width="19.8801" vectornator:layerName="Curve 121"/>
<path d="M478.582 506.602C487.012 507.801 496.938 508.97 504.363 504.304" fill="none" opacity="1" stroke="#234813" stroke-linecap="round" stroke-linejoin="round" stroke-width="19.8801" vectornator:layerName="Curve 122"/>
<path d="M595.69 506.318C590.947 508.953 575.483 545.416 577.486 550.898C579.305 555.872 599.55 541.084 599.857 542.72C600.816 547.834 565.292 587.528 578.687 599.808C583.319 604.054 592.491 593.084 595.685 591.309C597.253 590.438 600.246 587.301 600.576 589.065C601.202 592.405 597.007 594.869 595.605 597.964C590.852 608.455 583.424 627.585 588.707 639.097C592.645 647.676 602.341 625.209 605.065 620.095C605.522 619.236 605.064 616.739 605.867 617.288C605.949 617.345 605.422 657.279 609.152 663.152C613.96 670.723 624.791 653.372 626.712 650.564C627.407 649.549 628.053 646.537 628.797 647.518C634.604 655.174 625.868 673.83 637.615 680.392C647.728 686.041 651.958 672.061 654.694 665.239C655.418 663.433 655.763 661.497 656.298 659.626C657.054 656.98 655.056 665.055 655.175 667.805C655.369 672.27 657.225 682.165 663.192 682.237C671.24 682.335 676.488 663.329 678.348 656.821C678.726 655.498 678.909 652.732 678.909 652.732C678.909 652.732 677.927 663.721 681.554 666.844C686.468 671.073 689.839 661.274 690.856 659.788" fill="none" opacity="1" stroke="#234813" stroke-linecap="round" stroke-linejoin="round" stroke-width="19.8801" vectornator:layerName="Curve 123"/>
<path d="M593 580.525C593.198 584.925 586.465 594.366 590.794 593.554C593.907 592.971 591.42 587.25 591.677 584.093C591.822 582.305 590.985 580.201 591.998 578.721C592.547 577.918 595.45 580.251 594.804 579.523C592.549 576.981 592.715 574.189 593 580.525Z" fill="none" opacity="1" stroke="#234813" stroke-linecap="round" stroke-linejoin="round" stroke-width="19.8801" vectornator:layerName="Curve 124"/>
<path d="M734.892 788.943C727.02 791.14 744.621 796.126 738.787 783.086C738.1 781.55 739.965 787.943 738.291 788.109C735.504 788.385 737.247 788.286 734.892 788.943Z" fill="none" opacity="1" stroke="#234813" stroke-linecap="round" stroke-linejoin="round" stroke-width="19.8801" vectornator:layerName="Curve 125"/>
<path d="M697.702 643.722C697.856 645.278 710.854 659.458 712.154 653.031C713.724 645.267 708.368 634.748 705.672 627.811C704.614 625.088 700.9 617.144 702.093 619.81C703.601 623.181 716.633 648.306 722.23 640.293C728.839 630.832 719.195 612.791 715.087 604.396C710.509 595.043 711.698 598.255 707.552 590.62C707.254 590.07 706.53 588.334 706.785 588.906C711.894 600.326 726.599 612.387 728.787 592.094C730.02 580.658 725.822 571.149 719.433 561.987C717.957 559.869 717.23 556.007 714.651 555.896C713.801 555.859 717.399 563.574 717.403 563.581C719.14 566.272 722.519 571.628 726.321 571.251C733.128 570.575 732.943 554.068 732.306 549.369C732.054 547.508 730.675 542.471 730.005 544.226C727.653 550.387 744.548 598.604 750.292 600.305C755.837 601.948 758.063 582.514 758.188 579.627C758.244 578.309 758.633 574.666 757.797 575.687C751.133 583.82 759.388 612.782 769.211 616.532C774.345 618.493 777.861 597.513 777.166 594.455C776.445 591.277 774.558 600.61 774.52 603.87C774.445 610.231 778.526 625.878 785.257 627.871C789.94 629.258 791.035 617.474 791.393 615.525C791.781 613.412 792.716 607.096 791.949 609.103C789.65 615.126 797.759 643.342 803.349 643.783C809.431 644.262 811.419 627.61 813.214 622.909" fill="none" opacity="1" stroke="#234813" stroke-linecap="round" stroke-linejoin="round" stroke-width="19.8801" vectornator:layerName="Curve 126"/>
<path d="M968.174 356.063C965.274 359.602 995.389 361.723 987.784 369.237C982.892 374.071 970.106 370.203 963.888 371.011C963.035 371.122 961.383 370.603 961.346 371.462C961.253 373.632 983.759 381.021 979.513 392.141C977.209 398.174 963.425 396.124 958.865 396.577C957.806 396.682 955.929 396.235 955.752 397.284C955.578 398.313 957.484 398.52 958.489 398.803C961.141 399.548 987.688 404.573 983.754 410.819C975.415 424.057 956.993 411.817 948.804 415.481C948.115 415.789 952.085 416.91 958.985 419.842C960.61 420.532 972.967 425.417 971.467 429.346C966.343 442.766 930.414 427.823 924.622 430.414C924.083 430.655 925.746 430.786 926.276 431.046C928.682 432.224 932.395 434.708 934.171 436.429C937.292 439.453 941.208 445.118 941.45 449.633C942.194 463.539 913.712 451.333 906.109 450.355C902.876 449.939 894.173 445.642 896.695 447.708C900.938 451.185 904.051 457.12 907.026 461.604C912.308 469.564 889.478 463.806 887.326 463.559C878.685 462.567 865.138 463.477 857.88 457.528C855.781 455.809 862.333 460.829 863.805 463.108C865.178 465.235 871.143 473.11 866.632 475.56C861.51 478.341 825.342 471.267 825.547 466.506C825.585 465.622 827.217 467.099 828.028 467.454C830.06 468.343 831.977 469.512 834.073 470.236C836.322 471.013 838.634 471.748 841.006 471.935C846.03 472.332 855.283 470.738 859.88 469.665C877.502 465.548 894.227 457.422 911.839 453.964C914.199 453.501 944.099 445.884 930.833 448.897" fill="none" opacity="1" stroke="#234813" stroke-linecap="round" stroke-linejoin="round" stroke-width="19.8801" vectornator:layerName="Curve 127"/>
<path d="M845.563 489.786C843.916 491.797 886.266 500.084 884.694 505.201C883.026 510.628 875.953 513.227 871.369 515.277C869.845 515.959 865.429 516.366 866.797 517.322C875.651 523.507 886.345 520.842 894.86 529.459C895.591 530.199 900.885 535.799 900.153 536.692C897.45 539.991 888.283 540.82 888.468 541.234C891.035 546.971 915.86 545.696 918.771 559.912C919.56 563.764 913.437 565.14 910.966 565.461C909.578 565.642 906.198 564.003 906.77 565.281C909.654 571.727 933.331 586.314 930.17 594.591C927.874 600.605 916.429 590.81 914.274 592.787C912.561 594.359 919.909 602.641 920.275 603.133C924.587 608.933 931.869 617.807 928.275 625.616C925.302 632.076 915.752 627.167 911.176 625.722C910.016 625.355 907.432 624.074 907.552 625.285C908.019 629.994 924.848 648.423 912.003 652.099C906.518 653.669 899.029 648.525 893.686 647.949C882.519 646.745 885.127 650.814 879.52 651.543C864.952 653.436 847.576 637.221 832.644 640.279C829.001 641.025 832.492 646.859 829.546 647.151C827.002 647.404 820.712 642.408 818.598 641.076C817.599 640.446 814.187 639.391 815.289 639.812C825.859 643.848 811.734 642.734 807.349 641.993" fill="none" opacity="1" stroke="#234813" stroke-linecap="round" stroke-linejoin="round" stroke-width="19.8801" vectornator:layerName="Curve 128"/>
<path d="M712.034 655.828C722.22 651.271 731.912 639.111 744.607 641.256C750.873 642.314 736.837 654.162 735.87 655.452C735.31 656.199 733.373 657.026 734.095 657.618C737.615 660.502 754.027 642.522 759.481 640.775C764.807 639.069 767.305 647.579 765.481 651.121C765.211 651.646 764.45 652.341 764.849 652.776C769.308 657.635 792.097 623.079 792.942 651.182C793.046 654.634 792.722 658.089 792.776 661.543" fill="none" opacity="1" stroke="#234813" stroke-linecap="round" stroke-linejoin="round" stroke-width="19.8801" vectornator:layerName="Curve 129"/>
<path d="M227.33 481.475C225.743 483.196 198.789 515.34 202.588 519.279C206.646 523.486 213.865 519.786 218.331 518.637C220.372 518.112 225.515 516.983 224.65 518.905C221.642 525.589 186.741 545.409 190.376 554.994C193.267 562.619 208.762 554.708 208.85 556.87C209.033 561.358 175.46 584.354 179.235 591.192C181.828 595.89 187.7 595.454 191.979 594.353C194.124 593.801 197.406 589.926 198.191 591.997C199.069 594.312 194.939 595.74 193.157 597.459C184.44 605.866 170.158 619.936 168.308 632.638C166.477 645.206 186.592 638.436 188.067 640.243C188.639 640.945 179.091 648.895 178.963 649.025C173.502 654.526 163.112 671.733 164.984 680.082C166.73 687.868 179.555 684.404 183.458 681.957C185.244 680.838 189.981 676.819 188.01 677.567C178.066 681.338 168.36 698.28 167.713 708.356C166.388 728.978 180 706.159 184.527 708.196C185.554 708.659 179.765 714.653 178.85 723.671C178.593 726.201 180.372 740.857 186.292 738.612C192.342 736.318 200.342 724.48 203.429 720.567" fill="none" opacity="1" stroke="#3a6925" stroke-linecap="round" stroke-linejoin="round" stroke-width="19.8801" vectornator:layerName="Curve 130"/>
<path d="M123.895 213.404C118.443 217.85 99.9784 239.333 103.222 247.887C105.806 254.699 117.637 248.638 121.59 247.139C123.42 246.445 128.686 244.222 126.731 244.301C115.132 244.774 88.395 279.892 85.9767 289.065C84.5681 294.407 96.1878 294.147 99.3099 293.778C100.179 293.675 102.022 292.8 101.934 293.671C100.875 304.098 70.42 320.094 71.0865 336.454C71.4382 345.085 88.986 335.132 91.1136 337.741C92.4248 339.348 81.8569 347.679 81.0456 348.664C75.8139 355.013 67.2038 370.175 67.5491 378.65C67.9702 388.987 85.2772 373.599 84.2564 375.867C81.8292 381.259 59.5282 415.703 66.1535 421.81C69.0353 424.466 83.2399 406.739 81.9513 409.602C77.6293 419.204 67.8925 426.064 64.653 436.589C63.3792 440.728 63.5974 450.289 69.4712 451.637C75.2954 452.973 84.3049 441.571 84.3049 441.571C84.3049 441.571 63.766 462.201 69.2554 472.146C74.4426 481.543 81.372 462.177 85.1601 462.562C88.3577 462.886 86.2464 465.871 85.8559 466.739C79.7512 480.302 74.6973 506.893 96.6177 485.749" fill="none" opacity="1" stroke="#3a6925" stroke-linecap="round" stroke-linejoin="round" stroke-width="19.8801" vectornator:layerName="Curve 131"/>
<path d="M276.641 564.768C280.475 577.553 300.899 586.922 303.607 604.911C304.079 608.043 303.688 613.532 299.181 613.129C298.927 613.106 292.519 608.378 292.334 609.44C292.062 611.002 299.723 616.576 300.445 617.343C305.381 622.589 312.953 633.659 313.295 641.05C313.72 650.208 301.235 643.58 301.39 643.471C307.255 639.345 324.355 676.282 321.087 682.35C318.651 686.871 311.208 677.803 310.13 676.448C309.189 675.265 306.482 671.833 307.813 672.55C312.327 674.982 317.158 681.941 319.927 686.142C323.031 690.851 329.836 707.11 326.772 712.798C324.962 716.158 313.818 715.525 314.551 714.166C315.894 711.672 324.035 723.126 324.347 723.86C327.02 730.146 332.561 744.995 330.455 751.885C326.634 764.384 317.506 747.183 318.445 746.3C321.766 743.174 328.637 764.24 328.978 766.108C331.364 779.169 320.662 776.627 319.916 778.012C317.804 781.933 329.917 793.776 325.497 800.453C317.479 812.566 298.167 804.288 297.579 791.6C297.467 789.184 301.063 789.943 301.793 790.336C309.044 794.242 307.327 819.534 299.577 817.412C285.894 813.666 274.491 794.757 273.875 781.483" fill="none" opacity="1" stroke="#3a6925" stroke-linecap="round" stroke-linejoin="round" stroke-width="19.8801" vectornator:layerName="Curve 132"/>
<path d="M345.094 341.034C344.359 341.377 342.094 342.217 342.89 342.063C351.432 340.404 386.573 318.002 392.99 326.727C395.925 330.717 386.576 338.456 384.274 340.637C383.466 341.404 380.632 342.363 381.679 342.743C385.589 344.165 408.204 325.511 422.229 331.866C427.57 334.285 423.193 343.748 421.105 346.705C420.265 347.894 416.799 350.505 418.118 349.889C425.367 346.505 448.841 327.526 457.247 337.885C460.336 341.691 459.521 346.867 456.906 350.57C455.719 352.251 450.859 354.471 452.793 355.174C457.179 356.769 482.04 328.078 490.894 340.966C493.397 344.611 491.175 348.582 489.867 352.182C489.405 353.452 487.684 356.113 489.035 356.149C497.164 356.368 509.405 337.481 518.761 343.167C524.279 346.52 522.268 358.642 524.836 360.013C527.21 361.281 543.336 342.873 554.514 348.843C558.783 351.123 563.369 356.721 563.233 361.771C563.13 365.598 561.929 366.581 559.757 369.657C559.408 370.151 558.03 371.147 558.631 371.077C565.329 370.304 593.949 344.603 597.32 361.963C598.106 366.011 592.777 375.229 593.992 377.831C594.01 377.87 602.844 371.057 603.247 370.827C608.765 367.668 619.618 361.119 626.314 362.743C633.939 364.593 624.886 381.132 625.092 381.207C627.705 382.157 654.471 364.362 665.053 365.236C673.161 365.905 668.087 376.648 665.741 380.124C665.403 380.625 664.047 381.338 664.615 381.544C669.025 383.148 677.949 373.201 681.216 371.11C689.514 365.8 706.693 354.586 717.505 356.854C721.12 357.612 719.943 364.044 719.073 365.963C718.076 368.165 716.179 369.842 714.568 371.645C713.999 372.282 711.905 373.116 712.708 373.408C719.096 375.73 746.763 354.179 759.624 355.085C769.145 355.756 756.65 370.127 760.703 368.896C775.184 364.498 785.53 352.133 801.105 350.036C803.863 349.664 808.254 348.101 809.431 350.622C810.673 353.282 803.592 360.111 802.233 362.034C801.324 363.321 798.108 365.414 799.589 365.953C803.687 367.442 844.383 341.01 849.738 348.805C851.788 351.789 832.505 362.059 835.928 363.303C840.559 364.986 866.39 351.693 874.667 352.377C875.638 352.457 877.444 351.849 877.556 352.817C878.582 361.698 857.949 361.807 858.654 367.904C859.07 371.506 865.919 368.559 869.526 368.197C877.766 367.369 897.058 359.98 904.005 367.311C909.739 373.362 887.423 382.286 885.053 384.21C884.297 384.823 882.922 385.951 883.536 386.707C885.701 389.376 915.18 382.872 919.729 389.494C923.221 394.579 888.243 403.703 885.595 404.534C884.027 405.027 880.656 404.224 880.844 405.857C881.127 408.306 906.76 407.909 897.449 422.262C891.618 431.251 875.3 430.32 866.008 431.571C863.212 431.948 856.44 430.24 857.634 432.797C858.186 433.979 880.435 440.348 875.413 445.969C869.964 452.069 859.364 451.432 852.053 451.506C849.636 451.53 843.782 449.121 844.804 451.311C846.183 454.264 858.235 457.855 856.119 462.133C851.166 472.148 825.733 469.934 819.486 462.236" fill="none" opacity="1" stroke="#3a6925" stroke-linecap="round" stroke-linejoin="round" stroke-width="19.8801" vectornator:layerName="Curve 133"/>
<path d="M617.459 739.602C616.777 733.91 643.519 701.906 650.553 705.468C654.117 707.272 644.126 723.778 647.784 723.339C653.567 722.647 663.444 692.555 674.293 692.8C680.398 692.938 680.191 701.317 679.326 705.528C679.117 706.545 677.375 708.98 678.274 708.46C687.669 703.029 692.027 689.956 699.747 682.734C700.971 681.589 711.537 676.011 711.589 682.016C711.633 687.217 706.282 691.838 704.172 696.236C703.722 697.172 702.103 698.959 703.12 699.168C707.67 700.102 729.864 666.308 737.043 671.95C741.987 675.836 729.19 693.344 729.846 693.86C731.975 695.534 734.308 690.753 736.266 688.882C742.05 683.353 754.38 667.246 764.267 670.792C771.321 673.322 766.5 680.418 764.541 684.791C763.692 686.687 760.639 691.696 762.437 690.656C771.133 685.629 783.232 660.866 795.752 664.213C801.48 665.744 803.185 671.17 801.394 676.165C800.263 679.318 793.53 685.527 796.855 685.128C809.561 683.606 816.224 660.436 831.275 662.06C846.102 663.661 833.443 676.17 830.221 682.533C829.924 683.119 828.487 683.676 829.003 684.082C829.58 684.536 830.368 683.523 830.995 683.142C838.814 678.392 851.027 664.511 861.486 668.262C872.176 672.097 862.865 684.045 859.048 688.901C857.613 690.727 852.177 695.137 854.012 693.714C858.873 689.944 890.393 669.443 892.082 683.539C893.13 692.288 877.757 698.658 878.412 704.12C878.586 705.578 881.042 702.808 882.396 702.24C884.837 701.215 887.302 700.248 889.755 699.253C898.318 695.778 908.578 691.492 916.979 698.095C926.446 705.536 906.702 723.421 899.49 721.941" fill="none" opacity="1" stroke="#3a6925" stroke-linecap="round" stroke-linejoin="round" stroke-width="19.8801" vectornator:layerName="Curve 134"/>
<path d="M178.639 42.552C177.186 37.8628 220.074 62.2007 216.482 68.1426C214.734 71.0339 190.939 60.6696 189.505 61.698C188.377 62.5073 191.974 62.9712 193.191 63.64C195.443 64.8777 197.665 66.1708 199.912 67.4169C200.519 67.7536 201.125 68.0959 201.755 68.388C209.328 71.899 229.038 79.0569 229.627 89.6664C229.932 95.1598 215.265 91.3071 213.386 90.9976C211.003 90.6052 204.829 87.8578 206.237 89.8204C209.976 95.034 225.575 98.6468 231.493 102.657C232.65 103.442 248.35 116.069 239.102 117.262C233.125 118.032 226.764 112.695 221.01 113.615C218.473 114.021 225.491 116.133 227.732 117.392C231.429 119.469 235.089 121.615 238.682 123.868C242.028 125.967 257.741 133.797 256.689 140.185C255.813 145.508 242.166 141.131 239.256 140.652C236.873 140.259 230.341 137.826 232.106 139.474C242.3 148.994 269.974 152.929 272.014 168.743C272.888 175.521 257.288 171.351 254.366 170.51C252.215 169.89 246.165 166.982 248.081 168.14C259.802 175.225 275.83 180.374 285.052 190.917C299.127 207.008 276.013 203.717 267.527 200.047" fill="none" opacity="1" stroke="#3a6925" stroke-linecap="round" stroke-linejoin="round" stroke-width="19.8801" vectornator:layerName="Curve 135"/>
<path d="M157.763-0.939331C166.355-1.23331 180.504 8.39397 187.462 13.2968C190.657 15.5486 198.991 20.4387 195.384 21.9445C193.715 22.6407 179.802 20.0555 179.678 20.0259C176.658 19.3044 173.807 17.975 170.793 17.2278C140.102 9.61871 196.771 33.7885 195.958 38.7281C195.421 41.985 189.359 38.309 186.102 37.7728C182.981 37.259 167.107 32.4323 168.018 38.1329" fill="none" opacity="1" stroke="#3a6925" stroke-linecap="round" stroke-linejoin="round" stroke-width="19.8801" vectornator:layerName="Curve 136"/>
<path d="M409.893 519.416C421.014 516.771 453.873 524.162 459.018 533.045C459.564 533.987 458.231 535.252 457.306 535.826C450.52 540.036 440.166 536.739 432.635 538.53C431.845 538.718 434.264 538.584 435.059 538.745C437.871 539.311 440.644 540.053 443.437 540.707C447.283 541.608 483.242 548.177 480.048 554.94C476.753 561.918 458.061 556.874 455.697 562.315C454.276 565.583 462.402 564.897 465.928 565.418C474.566 566.697 485.424 569.779 492.701 574.872C493.365 575.337 494.409 576.249 493.984 576.94C493.52 577.693 466.769 584.019 470.166 586.561C476.186 591.066 511.28 595.072 511.982 602.72C512.385 607.094 497.198 610.97 497.506 611.701C499.843 617.25 529.998 620.512 537.291 625.97C548.977 634.717 526.08 633.375 526.307 639.658C526.439 643.302 532.714 643.206 536.146 644.437C543.112 646.936 584.131 659.148 554.788 662.944C552.442 663.248 550.058 663.015 547.693 663.05" fill="none" opacity="1" stroke="#3a6925" stroke-linecap="round" stroke-linejoin="round" stroke-width="19.8801" vectornator:layerName="Curve 137"/>
<path d="M674.583 814.026C687.475 812.612 700.359 814.996 712.801 818.383C716.651 819.431 725.387 821.465 722.996 824.66C719.881 828.821 706.607 829.112 702.032 829.647C699.471 829.946 693.77 828.171 694.366 830.679C694.619 831.743 704.088 830.886 706.31 831.002C717.33 831.582 734.825 830.025 744.705 836.108C752.115 840.67 732.305 846.969 729.266 847.692C728.517 847.87 727.02 848.226 727.02 848.226C727.02 848.226 733.874 847.902 737.287 848.157C741.851 848.498 772.867 851.4 773.793 855.295C775.481 862.391 760.124 864.084 755.573 865.167C754.076 865.523 749.867 865.289 751.081 866.235C763.649 876.04 788.121 864.02 800.991 876.513C806.9 882.249 787.21 888.172 784.233 889.202C783.263 889.538 781 888.916 781.238 889.914C782.22 894.046 789.524 891.802 793.715 892.484C804.297 894.205 815.745 893.784 825.373 899.193C835.537 904.904 818.605 909.925 815.53 911.027C812.863 911.983 804.935 912.474 807.472 913.735C814.499 917.227 896.609 929.713 842.049 942.691C840.052 943.166 838.056 943.641 836.059 944.116" fill="none" opacity="1" stroke="#3a6925" stroke-linecap="round" stroke-linejoin="round" stroke-width="19.8801" vectornator:layerName="Curve 138"/>
<path d="M713.402 521.623C716.663 530.331 722.393 551.348 731.769 555.615C736.635 557.829 737.384 543.088 737.491 540.788C737.601 538.422 736.399 531.67 737.649 533.683C742.35 541.253 748.693 582.279 758.558 580.11C765.841 578.509 761.669 563.554 764.977 561.5C767.968 559.642 769.516 572.176 770.994 577.567C772.146 581.765 784.84 607.054 788.283 604.916C793.006 601.983 789.092 587.796 788.756 583.6C788.576 581.364 786.267 575.213 787.677 576.957C791.069 581.151 805.38 616.834 814.075 613.578C816.962 612.497 812.228 598.061 811.766 596.122C811.246 593.94 809.045 587.952 810.688 589.479C819.256 597.442 822.505 612.53 833.612 622.469C833.862 622.693 841.022 630.969 842.955 626.721C845.467 621.202 838.04 608.832 838.947 608.492C839.868 608.147 840.566 609.681 841.109 610.501C843.606 614.27 850.624 630.937 857.243 629.122C865.229 626.932 851.29 608.876 853.158 608.807C855.796 608.711 868.671 621.861 868.371 613.68" fill="none" opacity="1" stroke="#162f0b" stroke-linecap="round" stroke-linejoin="round" stroke-width="19.8801" vectornator:layerName="Curve 139"/>
<path d="M677.676 618.151C678.383 620.038 698.277 642.644 700.066 636.543C704.096 622.798 687.872 611.45 687.416 599.001C687.36 597.446 688.864 601.756 689.654 603.095C690.794 605.027 691.857 607.019 693.205 608.812C694.688 610.786 705.343 621.115 708.107 616.62C712.046 610.217 696.891 578.705 690.748 575.909C687.36 574.367 692.708 579.713 696.46 583.635C699.6 586.918 707.239 596.045 712.751 595.15C722.461 593.574 703.255 559.891 698.789 555.986C698.087 555.372 696.877 554.143 696.241 554.826C693.041 558.269 710.256 570.718 714.308 569.2C719.595 567.22 703.904 543.326 701.114 539.613C700.278 538.501 697.223 535.792 698.489 536.368C702.66 538.266 709.552 548.432 715.554 546.185C723.594 543.174 702.241 515.124 698.81 510.881" fill="none" opacity="1" stroke="#162f0b" stroke-linecap="round" stroke-linejoin="round" stroke-width="19.8801" vectornator:layerName="Curve 140"/>
<path d="M423.169 487.972C418.082 489.877 450.296 507.758 454.363 507.295C461.984 506.427 449.305 488.942 448.193 487.056C447.133 485.259 442.728 480.768 444.256 482.189C453.301 490.595 463.892 499.328 475.14 504.446C476.449 505.042 485.458 508.918 484.255 502.442C483.692 499.415 482.095 496.675 481.015 493.791C467.781 458.452 488.932 503.942 508.506 503.226C521.058 502.767 510.772 483.525 509.29 478.974C508.472 476.464 507.606 469.156 506.512 471.558C502.548 480.27 531.084 498.774 538.785 497.524C550.088 495.689 537.268 474.134 537.096 474.198C533.775 475.442 539.62 481.025 542.035 483.623C547.167 489.143 557.376 496.825 565.508 497.382C574.937 498.027 563.151 483.561 562.426 481.624C561.595 479.406 565.789 484.984 567.212 486.878C568.466 488.547 569.651 490.293 571.149 491.746C575.058 495.537 582.979 501.989 588.29 503.648C594.603 505.62 582.583 484.646 582.583 484.646C582.583 484.646 586.174 488.588 588.219 490.286C593 494.26 599.66 499.606 606.133 500.489C612.987 501.425 608.586 494.527 607.913 492.072" fill="none" opacity="1" stroke="#162f0b" stroke-linecap="round" stroke-linejoin="round" stroke-width="19.8801" vectornator:layerName="Curve 141"/>
<path d="M322.233 542.905C322.012 549.819 323.017 586.067 329.852 591.743C335.773 596.66 353.504 568.499 352.973 562.766C352.745 560.306 348.282 565.202 347.212 567.428C343.996 574.117 344.65 573.658 344.35 581.111C343.92 591.8 347.923 612.411 354.281 621.478C360.023 629.668 369.469 598.939 370.522 596.235C371.427 593.911 369.632 601.143 369.139 603.588C368.793 605.3 368.912 607.083 368.589 608.8C367.435 614.935 364.272 636.721 375.336 637.076C381.025 637.258 384.532 623.203 386.101 619.564C387.01 617.454 390.891 612.928 388.602 613.14C386.36 613.347 381.746 645.453 393.776 646.722C398.437 647.213 399.26 636.867 399.803 633.778C400.105 632.057 400.191 626.827 400.352 628.566C401.543 641.427 398.285 652.942 403.763 665.408C404.875 667.937 406.293 673.826 408.52 672.193C415.425 667.13 410.162 647.363 416.196 643.614C417.116 643.042 417.404 645.511 417.503 646.589C418.041 652.394 417.133 658.104 418.091 664.082C419.432 672.449 424.048 691.514 432.816 678.201" fill="none" opacity="1" stroke="#162f0b" stroke-linecap="round" stroke-linejoin="round" stroke-width="19.8801" vectornator:layerName="Curve 142"/>
<path d="M261.834 369.933C252.761 380.857 231.95 401.051 230.924 415.113C230.218 424.793 262.171 401.826 264.033 404.823C267.795 410.877 230.001 429.07 228.631 434.937C226.486 444.121 242.869 437.468 245.29 436.491C247.909 435.433 255.687 432.195 253.287 433.686C245.788 438.346 183.816 470.051 232.497 465.544C235.586 465.258 238.574 464.293 241.613 463.668" fill="none" opacity="1" stroke="#162f0b" stroke-linecap="round" stroke-linejoin="round" stroke-width="19.8801" vectornator:layerName="Curve 143"/>
<path d="M561.271 817.003C560.946 819.117 571.792 872.816 578.214 877.364C585.428 882.474 591.81 858.112 592.693 855.38C593.399 853.193 594.541 851.159 595.194 848.955C595.596 847.601 595.708 843.361 595.839 844.767C597.619 863.992 592.698 892.678 611.853 906.246C619.979 912.003 621.617 879.192 625.024 881.287C626.704 882.32 635.499 943.002 652.011 938.654C653.726 938.202 659.436 912.937 661.184 915.097C662.171 916.317 661.085 925.175 661.203 926.449C662.351 938.848 664.907 955.164 676.895 962.154C683.631 966.082 685.828 953.646 687.11 949.854C687.908 947.491 689.398 940.177 688.493 942.501C685.257 950.813 702.489 985.566 707.54 980.992C712.425 976.569 708.81 961.263 708.81 961.263C708.81 961.263 708.957 966.085 709.473 968.427C710.413 972.697 721.319 995.166 726.169 992.685C731.908 989.749 723.096 972.38 726.226 971.004C729.593 969.525 745.939 1011.59 751.394 997.575" fill="none" opacity="1" stroke="#162f0b" stroke-linecap="round" stroke-linejoin="round" stroke-width="19.8801" vectornator:layerName="Curve 144"/>
<path d="M516.829 782.928C514.977 790.86 521.03 829.21 507.05 833.377C502.584 834.708 504.135 815.001 504.132 813.004C504.128 810.92 504.394 804.694 504.586 806.769C505.394 815.494 498.635 855.595 489.406 854.622C483.485 853.997 485.381 839.5 485.654 836.39C485.901 833.576 485.451 825.614 486.942 828.014C491.227 834.909 483.7 864.661 476.31 869.253C471.211 872.421 467.254 847.17 470.777 842.929C472.581 840.755 470.13 848.554 469.488 851.305C468.995 853.415 468.655 855.567 468.01 857.635C467.18 860.293 459.009 881.933 454.554 879.524C449.655 876.876 451.134 861.374 451.446 857.105C451.573 855.362 452.261 850.166 451.995 851.893C450.965 858.593 447.392 892.754 436.057 891.559C430.191 890.94 429.653 874.096 429.974 870.447C430.107 868.92 430.833 864.862 431.641 866.163C438.433 877.094 419.506 912.767 406.019 901.565" fill="none" opacity="1" stroke="#162f0b" stroke-linecap="round" stroke-linejoin="round" stroke-width="19.8801" vectornator:layerName="Curve 145"/>
<path d="M1007.22 1197.11C1008.34 1197.86 1009.45 1198.6 1010.56 1199.34" fill="#b82828" fill-rule="nonzero" opacity="1" stroke="#791a1a" stroke-linecap="round" stroke-linejoin="round" stroke-width="19.8801" vectornator:layerName="Curve 146"/>
<path d="M862.674 458.221C860.091 459.125 868.128 457.722 870.824 457.256C872.892 456.898 866.629 457.781 864.648 458.474C861.119 459.709 857.381 461.524 854.019 463.137C846.942 466.531 839.143 474.309 833.432 479.773C816.04 496.411 803.07 520.638 803.432 544.975C804.358 607.258 858.308 656.838 921.44 642.324C957.883 633.946 991.418 585.334 993.833 550.026C994.634 538.299 990.816 529.005 988.288 518.012C986.346 509.564 984.406 498.889 978.333 492.257C958.632 470.748 929.445 452.442 899.477 452.888C889.456 453.037 879.033 451.297 869.06 452.214C865.777 452.516 861.402 452.499 858.389 454.062C856.723 454.926 852.065 457.354 853.935 457.507C860.482 458.042 866.912 456.738 862.674 458.221Z" fill="#b82828" fill-rule="nonzero" opacity="1" stroke="#791a1a" stroke-linecap="round" stroke-linejoin="round" stroke-width="19.8801" vectornator:layerName="Curve 147"/>
<path d="M245.661 751.481C206.301 752.067 174.022 818.693 174.529 852.77C175.579 923.347 270.712 991.6 334.76 949.491C364.631 929.852 389.349 906.302 400.598 870.805C404.005 860.054 401.376 846.982 398.961 836.48C390.676 800.44 380.77 770.485 349.223 748.251C318.721 726.754 285.614 732.784 253.434 744.045C241.759 748.131 225.753 752.199 219.949 764.252" fill="#b82828" fill-rule="nonzero" opacity="1" stroke="#791a1a" stroke-linecap="round" stroke-linejoin="round" stroke-width="19.8801" vectornator:layerName="Curve 148"/>
<path d="M364.037 1145.26C357.379 1150.55 358.956 1147.62 357.143 1152.45" fill="#fafafa" fill-rule="nonzero" opacity="1" stroke="#9ad2cb" stroke-linecap="round" stroke-linejoin="round" stroke-width="19.8801" vectornator:layerName="Curve 149"/>
<path d="M403.449 1410.32C405.115 1406.99 406.782 1403.66 408.448 1400.33" fill="#fafafa" fill-rule="nonzero" opacity="1" stroke="#fbfcf9" stroke-linecap="round" stroke-linejoin="round" stroke-width="19.8801" vectornator:layerName="Curve 150"/>
<path d="M229.155 874.97C225.632 860.587 224.41 847.655 228.667 832.79C229.909 828.454 231.65 824.824 233.737 820.907C234.77 818.969 237.323 812.952 236.836 815.093C235.703 820.081 229.148 825.33 226.925 830.024C223.538 837.18 221.988 847.225 222.419 855.071C222.656 859.382 223.737 865.957 225.544 870.002C225.895 870.788 226.781 873.107 226.159 872.511C218.426 865.105 219.101 834.3 222.187 824.8C223.986 819.263 227.676 812.757 231.791 808.614C232.28 808.122 232.765 806.74 233.301 807.18C234.454 808.126 229.941 814.709 229.691 815.247C226.204 822.76 222.023 832.988 221.983 841.344C221.937 851.118 223.032 861.116 226.671 870.258C226.787 870.55 230.943 879.74 233.022 878.811C235.434 877.734 234.538 868.024 234.584 866.723C234.968 855.827 235.786 845.008 237.81 834.275C238.08 832.845 239.408 819.825 243.264 820.702C245.338 821.173 241.925 834.025 241.626 835.735C239.547 847.599 237.391 860.928 242.831 872.152" fill="none" opacity="1" stroke="#fbfcf9" stroke-linecap="round" stroke-linejoin="round" stroke-width="19.8801" vectornator:layerName="Curve 151"/>
<path d="M851.418 567.471C838.574 557.11 845.187 530.381 851.809 517.799C855.455 510.872 860.189 506.397 860.414 506.847C860.777 507.574 844.604 538.533 843.987 544.395C843.667 547.43 845.058 575.612 854.156 573.338C856.536 572.743 851.958 554.642 851.809 552.999C850.97 543.766 854.38 533.918 858.067 525.621C861.902 516.991 863.181 515.934 868.236 509.194C869.018 508.151 870 504.899 870.583 506.065C870.663 506.225 859.681 532.043 858.849 534.226C855.513 542.982 852.175 553.583 853.374 563.169C853.388 563.281 855 573.387 854.938 573.338C851.758 570.793 852.772 568.563 851.418 567.471Z" fill="none" opacity="1" stroke="#fbfcf9" stroke-linecap="round" stroke-linejoin="round" stroke-width="19.8801" vectornator:layerName="Curve 152"/>
<path d="M1288.63-89.058C1286.91-94.2269 1288.45-93.1565 1282.99-89.058" fill="none" opacity="1" stroke="#fbfcf9" stroke-linecap="round" stroke-linejoin="round" stroke-width="19.8801" vectornator:layerName="Curve 153"/>
</g>
<g clip-path="url(#ArtboardFrame)" id="Layer-2" vectornator:layerName="Layer 2">
<path d="M1208.52 292.308C1209.27 294.188 1210.03 296.069 1210.78 297.949" fill="none" opacity="1" stroke="#fbfcf9" stroke-linecap="round" stroke-linejoin="round" stroke-width="19.8801" vectornator:layerName="Curve 1"/>
<path d="M262.097 723.346C262.715 724.784 263.334 726.562 262.718 728C262.066 729.522 262.484 724.674 262.718 723.035C263.026 720.876 263.06 714.068 265.2 716.208C266.201 717.209 290.721 712.703 294.37 711.243C294.799 711.072 295.284 710.296 295.611 710.623C297.805 712.817 294.63 716.988 295.611 719.932C296.196 721.688 299.633 723.871 298.094 724.897C293.553 727.924 279.484 724.719 273.889 725.518C270.889 725.946 268.242 726.139 265.2 726.139C263.942 726.139 261.251 727.997 261.476 726.759C261.945 724.185 261.361 721.632 262.097 723.346Z" fill="none" opacity="1" stroke="#f6cc5a" stroke-linecap="round" stroke-linejoin="round" stroke-width="19.8801" vectornator:layerName="Curve 2"/>
<path d="M878.977 446.775C883.233 448.978 888.361 446.37 893.149 446.37C895.52 446.37 905.342 448.515 906.917 447.99C908.93 447.318 906.17 430.463 905.297 430.172C904.843 430.021 896.832 433.356 896.389 433.412C894.756 433.616 882.194 429.599 881.811 430.172C880.321 432.407 877.538 446.03 878.977 446.775Z" fill="none" opacity="1" stroke="#f6cc5a" stroke-linecap="round" stroke-linejoin="round" stroke-width="19.8801" vectornator:layerName="Curve 3"/>
<path d="M894.769 423.288C892.882 419.603 892.401 415.329 890.72 411.545C887.984 405.391 883.351 402.717 883.431 402.637C889.03 397.038 902.432 438.256 894.769 423.288Z" fill="none" opacity="1" stroke="#f6cc5a" stroke-linecap="round" stroke-linejoin="round" stroke-width="3.2711" vectornator:layerName="Curve 4"/>
<path d="M282.507 707.553C280.686 701.476 281.464 694.779 282.507 688.521C282.841 686.517 285.338 683.565 286.556 682.042C289.366 678.529 282.858 708.727 282.507 707.553Z" fill="none" opacity="1" stroke="#f6cc5a" stroke-linecap="round" stroke-linejoin="round" stroke-width="3.2711" vectornator:layerName="Curve 5"/>
<path d="M400.896 243.854C402.496 243.654 395.17 243.649 396.264 242.464C404.994 233.006 438.105 222.406 451.855 223.934C463.578 225.236 473.831 231.777 485.21 233.199C499.836 235.027 512.188 225.538 526.903 227.64C542.119 229.813 550.896 243.391 564.89 243.391C584.241 243.391 606.202 234.975 625.114 238.758C634.928 240.721 637.066 250 650.13 247.097C660.447 244.804 669.989 239.022 680.705 237.831C697.922 235.918 701.602 251.832 713.133 248.95C729.029 244.976 740.153 236.819 757.606 238.758C765.936 239.683 772.09 247.41 780.769 246.17C793.389 244.367 803.271 239.096 816.903 240.611C824.487 241.454 825.69 247.789 832.654 248.95C845.775 251.136 860.356 244.277 873.421 249.876C877.897 251.794 878.776 255.869 882.686 258.215C892.674 264.208 904.47 263.005 915.114 266.553C922.224 268.923 921.168 275.473 926.232 279.525C933.421 285.276 944.924 287.719 950.322 295.276C954.312 300.861 956.617 307.961 960.514 313.806C962.114 316.206 965.622 320.665 965.146 323.998C962.877 339.882 929.338 334.08 919.747 332.336C900.895 328.909 883.254 323.34 864.156 321.218C849.558 319.596 836.004 325.605 821.536 323.998C807.788 322.47 790.96 314.468 777.063 318.439C761.273 322.95 750.9 336.315 733.517 337.895C722.002 338.942 722.552 330.329 714.06 328.63C701.133 326.045 686.164 336.949 672.366 334.189C659.185 331.553 646.096 334.62 632.526 333.263C623.425 332.353 616.496 326.208 607.51 324.924C597.23 323.456 586.345 325.958 576.008 324.924C567.518 324.075 562.212 317.953 554.698 314.732C543.256 309.828 529.269 304.661 516.711 303.614C509.092 302.979 501.278 300.988 493.548 301.761C479.213 303.195 465.637 309.422 450.928 307.32C439.399 305.673 431.817 301.066 421.28 298.055C411.887 295.371 400.763 298.915 391.631 294.349C376.444 286.755 365.267 274.24 374.954 257.288C379.171 249.908 387.049 248.624 394.411 246.17C397.081 245.28 399.994 244.776 402.749 244.317C403.663 244.165 406.452 244.401 405.529 244.317C401.212 243.925 396.909 244.352 400.896 243.854Z" fill="#fafafa" fill-rule="nonzero" opacity="1" stroke="#b9dddd" stroke-linecap="round" stroke-linejoin="round" stroke-width="3.2711" vectornator:layerName="Curve 6"/>
<path d="M916.504 443.055C944.282 440.995 1000.65 462.631 1013.33 487.991C1018.38 498.098 1033.73 544.717 1006.84 541.73C986.107 539.426 975.917 518.22 963.293 505.595C954.583 496.885 939.615 499.779 929.012 494.477C920.839 490.391 918.973 479.266 910.482 475.02C904.365 471.962 893.506 469.891 886.392 471.314C879.141 472.764 870.362 480.097 862.303 476.873C845.083 469.985 849.191 455.633 864.156 448.151C882.982 438.738 897.259 444.483 916.504 443.055Z" fill="#fafafa" fill-rule="nonzero" opacity="1" stroke="#b9dddd" stroke-linecap="round" stroke-linejoin="round" stroke-width="3.2711" vectornator:layerName="Curve 7"/>
<path d="M769.188 829.414C768.715 834.473 812.979 830.621 818.756 835.436C824.518 840.237 823.06 848.025 829.875 852.113C834.826 855.084 847.439 852.987 850.258 856.746C853.117 860.558 848.899 867.215 851.184 870.644C854.584 875.743 867.583 874.071 872.494 878.982C875.905 882.393 875.076 886.847 878.98 890.101C888.017 897.632 900.878 900.838 908.629 909.557C913.604 915.155 914.591 922.045 918.82 928.088C923.135 934.251 944.548 960.073 941.057 967.928C932.106 988.069 914.209 973.385 903.996 967.002C896.158 962.103 888.355 960.626 881.76 954.03C877.011 949.281 875.826 940.963 870.641 936.427C846.005 914.87 816.248 893.043 788.181 876.203C775.684 868.705 760.007 870.454 747.414 864.158C729.728 855.315 723.564 828.555 711.28 813.2C707.091 807.963 698.488 802.439 695.529 796.522C688.607 782.677 711.083 783.502 718.692 785.404C743.634 791.64 736.223 803.861 749.267 816.906C752.809 820.447 755.376 824.167 760.386 826.171C762.75 827.117 766.385 825.905 767.798 828.024C768.415 828.95 769.49 826.181 769.188 829.414Z" fill="#fafafa" fill-rule="nonzero" opacity="1" stroke="#b9dddd" stroke-linecap="round" stroke-linejoin="round" stroke-width="3.2711" vectornator:layerName="Curve 8"/>
<path d="M241.072 361.522C241.171 362.427 230.304 370.856 224.858 375.883C216.106 383.962 203.422 394.525 199.842 406.458C196.473 417.687 216.536 427.262 211.887 438.886C209.404 445.093 175.114 456.202 166.487 464.828C161.038 470.278 152.306 482.224 154.442 490.771C155.991 496.966 163.552 506.01 160.928 513.007C152.391 535.773 103.337 523.424 119.235 565.819C121.247 571.184 121.59 576.851 126.647 580.643C139.192 590.052 153.935 576.278 160.001 566.746C168.794 552.929 170.985 536.786 182.238 524.126C190.849 514.439 203.975 510.953 213.74 502.816C226.287 492.36 234.792 477.525 244.315 464.828C250.228 456.944 261.666 449.502 262.845 438.886C265.402 415.869 260.74 394.078 256.359 372.177C254.984 365.298 239.919 350.99 241.072 361.522Z" fill="#fafafa" fill-rule="nonzero" opacity="1" stroke="#b9dddd" stroke-linecap="round" stroke-linejoin="round" stroke-width="3.2711" vectornator:layerName="Curve 9"/>
<path d="M629.283 667.736C631.321 681.511 644.852 675.517 651.983 671.442C664.056 664.544 679.25 629.021 699.235 639.014C705.763 642.278 708.917 648.325 716.839 649.206C734.248 651.14 746.635 630.675 764.092 630.675C776.405 630.675 786.764 639.474 799.299 640.867C806.235 641.638 812.403 636.874 819.683 638.087C827.943 639.464 836.931 646.098 844.699 649.206C856.762 654.031 883.114 659.326 896.584 661.25C912.341 663.501 922.708 662.286 936.424 670.516C950.253 678.813 980.733 686.162 976.264 708.503C974.236 718.643 954.928 723.872 946.616 720.548C933.588 715.336 923.273 703.299 909.555 698.311C898.134 694.158 883.93 689.133 871.568 690.899C863.22 692.092 854.198 693.977 845.625 692.752C831.305 690.706 819.143 681.102 804.859 677.928C789.14 674.435 732.51 670.682 717.766 677.001C703.55 683.094 692.785 694.591 678.852 700.164C669.293 703.988 659.138 701.84 649.203 702.944C645.193 703.389 640.353 704.901 636.232 703.87C621.513 700.19 611.696 689.424 614.922 673.295C616.045 667.681 628.547 662.758 629.283 667.736Z" fill="#fafafa" fill-rule="nonzero" opacity="1" stroke="#b9dddd" stroke-linecap="round" stroke-linejoin="round" stroke-width="3.2711" vectornator:layerName="Curve 10"/>
<path d="M213.74 725.18C208.277 727.001 206.425 731.568 202.621 735.372C181.225 756.768 166.056 777.431 156.295 806.714C151.04 822.479 151.193 841.749 172.046 839.142C196.702 836.06 203.73 796.34 219.299 780.771C239.944 760.126 281.84 775.208 290.641 740.005C294.221 725.681 277.354 721.719 267.478 717.768C242.433 707.75 216.035 718.253 197.989 736.298" fill="#fafafa" fill-rule="nonzero" opacity="1" stroke="#b9dddd" stroke-linecap="round" stroke-linejoin="round" stroke-width="3.2711" vectornator:layerName="Curve 11"/>
</g>
</svg>
