<?xml version="1.0" encoding="UTF-8" standalone="no"?>
<!DOCTYPE svg PUBLIC "-//W3C//DTD SVG 1.1//EN" "http://www.w3.org/Graphics/SVG/1.1/DTD/svg11.dtd">
<!-- Created with Vectornator (http://vectornator.io/) -->
<svg height="100%" stroke-miterlimit="10" style="fill-rule:nonzero;clip-rule:evenodd;stroke-linecap:round;stroke-linejoin:round;" version="1.1" viewBox="0 0 1112 834" width="100%" xml:space="preserve" xmlns="http://www.w3.org/2000/svg" xmlns:vectornator="http://vectornator.io" xmlns:xlink="http://www.w3.org/1999/xlink">
<defs/>
<clipPath id="ArtboardFrame">
<rect height="834" width="1112" x="0" y="0"/>
</clipPath>
<g clip-path="url(#ArtboardFrame)" id="Layer-2" vectornator:layerName="Layer 2">
<path d="M1214.89 91.7438C1215.18 93.21 1215.48 94.6762 1215.77 96.1425" fill="none" opacity="1" stroke="#fddf19" stroke-linecap="round" stroke-linejoin="round" stroke-width="15.4763" vectornator:layerName="Curve 1"/>
<path d="M1235.13 345.11C1236.3 343.937 1237.47 342.764 1238.64 341.591" fill="none" opacity="1" stroke="#fddf19" stroke-linecap="round" stroke-linejoin="round" stroke-width="15.4763" vectornator:layerName="Curve 2"/>
<path d="M279.283 326.635C285.136 324.509 290.28 412.787 290.28 426.047C290.28 510.059 309.634 593.539 309.634 676.774C309.634 687.267 314.412 753.463 322.83 756.83C330.706 759.981 346.675 756.83 355.381 756.83C383.615 756.83 410.866 761.222 438.957 757.71C514.045 748.324 591.735 764.748 665.931 764.748C692.39 764.748 718.472 761.229 744.228 761.229C748.053 761.229 767.305 758.961 768.861 755.071C775.503 738.465 758.679 666.204 755.665 645.103C744.842 569.346 751.477 490.87 740.709 415.49C738.493 399.98 732.737 355.882 736.31 341.591C739.117 330.362 770.225 318.46 779.418 310.8C814.645 281.444 853.3 252.574 889.386 223.705C896.067 218.36 934.444 195.056 929.854 185.876C926.355 178.879 906.688 180.766 899.943 178.838C868.085 169.736 830.975 170.657 797.892 166.522C737.725 159.001 677.119 160.251 616.665 154.206C582.814 150.821 540.747 148.255 508.456 160.364C481.038 170.646 454.863 191.733 431.039 208.75C394.386 234.93 354.363 256.316 321.071 287.047C316.377 291.379 254.117 335.779 279.283 326.635Z" fill="#cc4029" fill-rule="nonzero" opacity="1" stroke="#8c2317" stroke-linecap="round" stroke-linejoin="round" stroke-width="15.4763" vectornator:layerName="Curve 3"/>
<path d="M774.579 748.033C778.033 758.734 808.841 729.069 816.367 724.28C854.554 699.979 884.956 667.562 919.297 638.945C930.912 629.266 945.777 618.564 953.607 605.514C972.456 574.099 966.148 535.195 963.284 500.825C957.998 437.389 953.778 373.579 944.81 310.8C942.159 292.247 945.612 200.194 933.373 192.035C928.241 188.614 902.401 213.504 898.183 216.667C865.425 241.236 835.149 266.41 804.05 292.325C792.727 301.761 738.08 335.391 735.43 345.99C727.039 379.555 743.149 420.736 746.867 454.198C754.462 522.554 756.493 591.079 766.221 659.179C770.388 688.342 766.74 723.743 774.579 748.033Z" fill="#cc4029" fill-rule="nonzero" opacity="1" stroke="#8c2317" stroke-linecap="round" stroke-linejoin="round" stroke-width="15.4763" vectornator:layerName="Curve 4"/>
<path d="M282.362 329.275C432.514 329.275 582.865 345.99 732.791 345.99" fill="none" opacity="1" stroke="#8c2317" stroke-linecap="round" stroke-linejoin="round" stroke-width="15.4763" vectornator:layerName="Curve 5"/>
<path d="M1242.16 412.85C1243.58 417.112 1242.57 414.694 1245.68 419.888" fill="none" opacity="1" stroke="#8c2317" stroke-linecap="round" stroke-linejoin="round" stroke-width="15.4763" vectornator:layerName="Curve 1"/>
<path d="M-166.308 911.665L-165.428 907.267" fill="#f2b63c" fill-rule="nonzero" opacity="1" stroke="#ff7e27" stroke-linecap="round" stroke-linejoin="round" stroke-width="15.4763" vectornator:layerName="Curve 2"/>
<path d="M455.672 908.146C456.814 910.431 455.896 909.906 458.311 909.906" fill="none" opacity="1" stroke="#f2b63c" stroke-linecap="round" stroke-linejoin="round" stroke-width="15.4763" vectornator:layerName="Curve 3"/>
<path d="M461.558 354.097C461.558 447.909 476.936 542.436 483.178 636.057C485.001 663.407 492.177 690.02 494.888 717.132C495.914 727.392 495.828 745.135 500.293 754.066" fill="none" opacity="1" stroke="#fd8d33" stroke-linecap="round" stroke-linejoin="round" stroke-width="15.4763" vectornator:layerName="Curve 4"/>
<path d="M466.062 349.593C479.766 322.184 507.703 300.519 530.021 280.229C577.441 237.12 631.846 180.227 693.972 159.518" fill="none" opacity="1" stroke="#fd8d33" stroke-linecap="round" stroke-linejoin="round" stroke-width="15.4763" vectornator:layerName="Curve 5"/>
<path d="M749.823 170.328C707.985 212.166 663.699 255.011 618.302 292.841C603.544 305.139 556.949 338.075 548.938 354.097" fill="none" opacity="1" stroke="#fd8d33" stroke-linecap="round" stroke-linejoin="round" stroke-width="15.4763" vectornator:layerName="Curve 6"/>
<path d="M552.541 352.296C550.664 353.234 550.74 418.507 550.74 428.866C550.74 500.073 563.702 570.703 568.756 641.462C570.69 668.531 576.394 695.574 579.566 722.537C580.324 728.979 583.59 756.709 580.467 750.463" fill="none" opacity="1" stroke="#fd8d33" stroke-linecap="round" stroke-linejoin="round" stroke-width="15.4763" vectornator:layerName="Curve 7"/>
<path d="M580.797 751.88C583.736 753.416 581.802 756.362 579.537 757.999C573.216 762.566 562.995 760.247 555.686 761.029C538.544 762.862 518.401 765.268 502.6 757.013" fill="none" opacity="1" stroke="#fd8d33" stroke-linecap="round" stroke-linejoin="round" stroke-width="15.4763" vectornator:layerName="Curve 8"/>
<path d="M688.885 157.836C684.827 155.807 662.358 172.931 658.108 176.023C626.412 199.074 594.099 219.367 565.077 245.971C538.103 270.696 481.686 314.177 467.15 348.094C457.404 370.834 463.049 407.301 465.051 431.332C470.259 493.825 477.591 559.057 488.834 620.891C494.04 649.526 492.885 749.427 525.206 755.891C530.379 756.925 575.473 757.361 578.367 755.191C586.322 749.225 571.568 670.832 569.274 659.363C562.779 626.888 567.447 590.503 559.481 558.638C550.737 523.662 550.388 486.405 550.388 449.519C550.388 428.754 541.772 403.54 546.89 383.068C556.772 343.541 584.426 328.046 613.341 299.131C645.908 266.563 677.216 231.446 712.667 201.903C724.577 191.978 741.762 181.529 751.138 169.028C761.793 154.822 742.307 150.841 732.252 150.841C711.919 150.841 689.634 148.318 676.294 168.328" fill="#fddf19" fill-rule="nonzero" opacity="1" stroke="#fd8d33" stroke-linecap="round" stroke-linejoin="round" stroke-width="15.4763" vectornator:layerName="Curve 9"/>
<path d="M911.567 647.672C907.023 652.692 912.191 640.791 912.5 637.382C913.386 627.604 911.498 617.887 911.569 608.2C911.787 578.286 905.643 547.923 904.216 518.336C899.896 428.762 881.243 336.579 854.656 254.833C846.031 228.314 761.978 222.254 739.944 217.956C710.056 212.126 678.246 217.577 647.862 215.567C587.531 211.576 482.351 184.035 431.077 212.84C416.044 221.286 390.788 221.363 378.848 236.485C362.887 256.7 455.235 254.046 466.224 256.573C534.473 272.263 616.154 253.798 682.367 269.02C710.874 275.574 742.62 268.568 770.967 278.247C777.026 280.316 801.019 283.938 804.064 289.358C817.248 312.826 813.778 351.938 817.717 378.125C825.33 428.736 832.677 479.274 844.071 529.337C851.921 563.827 848.767 601.412 855.879 635.824C857.545 643.887 861.739 687.286 874.964 685.731C884.667 684.59 901.19 668.052 905.473 659.64C907.487 655.683 911.009 653.279 912.416 648.822C912.822 647.536 913.629 643.62 913.017 644.822C911.458 647.885 914.065 644.911 911.567 647.672Z" fill="#fddf19" fill-rule="nonzero" opacity="1" stroke="#fd8d33" stroke-linecap="round" stroke-linejoin="round" stroke-width="15.4763" vectornator:layerName="Curve 10"/>
<path d="M611.339 211.63C611.339 174.918 559.156 135.783 529.339 123.004C453.866 90.6583 345.645 105.64 294.107 174.357C278.347 195.369 258.288 219.951 261.804 248.074C263.735 263.524 274.919 275.533 285.824 285.347C340.149 334.24 415.511 292.919 473.015 273.751C488.833 268.478 503.571 259.976 519.399 254.701C528.459 251.681 608.854 229.103 608.854 248.903" fill="none" opacity="1" stroke="#fd8d33" stroke-linecap="round" stroke-linejoin="round" stroke-width="15.4763" vectornator:layerName="Curve 11"/>
<path d="M609.682 244.761C607.505 240.407 611.187 236.176 608.854 231.509C594.922 203.646 553.351 194.142 526.854 186.781C465.453 169.726 397.725 177.214 340.49 205.832C315.02 218.567 303.21 266.051 322.268 287.832C330.243 296.946 339.522 297.701 349.601 302.741" fill="none" opacity="1" stroke="#fd8d33" stroke-linecap="round" stroke-linejoin="round" stroke-width="15.4763" vectornator:layerName="Curve 12"/>
<path d="M320.612 258.014C325.603 272.987 374.57 275.367 386.874 271.266C412.434 262.746 437.833 254.47 463.076 244.761C496.946 231.734 537.573 204.577 575.722 214.115" fill="none" opacity="1" stroke="#fd8d33" stroke-linecap="round" stroke-linejoin="round" stroke-width="15.4763" vectornator:layerName="Curve 13"/>
<path d="M617.965 203.347C633.105 188.207 645.277 170.236 661.035 155.307C705.526 113.158 755.895 95.3499 815.096 84.9027C824.285 83.2812 836.994 79.6744 846.571 81.5896C869.954 86.2663 893.771 121.581 899.581 142.882C909.052 177.611 883.101 193.944 858.167 209.973C806.97 242.885 736.553 240.62 677.601 240.62C667.004 240.62 611.843 232.985 608.025 240.62" fill="none" opacity="1" stroke="#fd8d33" stroke-linecap="round" stroke-linejoin="round" stroke-width="15.4763" vectornator:layerName="Curve 14"/>
<path d="M616.308 220.741C623.703 209.649 644.229 202.291 656.066 196.721C702.288 174.969 743.51 163.625 793.561 158.62C810.353 156.941 852.561 155.422 849.055 183.468C847.263 197.805 827.612 205.28 820.066 216.6" fill="none" opacity="1" stroke="#fd8d33" stroke-linecap="round" stroke-linejoin="round" stroke-width="15.4763" vectornator:layerName="Curve 15"/>
<path d="M871.419 195.064C848.894 206.327 815.082 214.115 790.247 214.115" fill="none" opacity="1" stroke="#fd8d33" stroke-linecap="round" stroke-linejoin="round" stroke-width="15.4763" vectornator:layerName="Curve 16"/>
<path d="M585.662 238.963C582.958 237.611 584.442 237.698 581.52 240.62C567.008 255.132 548.888 265.036 530.995 274.579C485.025 299.097 416.754 308.4 393.5 360.721C384.39 381.22 394.486 405.882 386.046 426.983C380.186 441.634 337.023 473.305 344.632 486.62C352.089 499.669 367.739 479.515 376.106 485.791C384.11 491.794 387.258 515.036 400.955 512.296C428.051 506.877 426.509 449.38 429.117 431.125C435.498 386.456 466.107 353.095 501.177 327.589C524.684 310.494 555.431 305.804 579.864 291.145C597.139 280.78 609.896 264.633 622.934 249.731" fill="none" opacity="1" stroke="#fd8d33" stroke-linecap="round" stroke-linejoin="round" stroke-width="15.4763" vectornator:layerName="Curve 17"/>
<path d="M601.399 271.266C598.249 287.015 604.979 307.096 607.197 322.62C619.525 408.917 695.22 436.285 745.52 495.731C763.955 517.517 770.291 568.317 798.53 577.731C802.424 579.028 799.534 557.764 802.672 556.195C811.923 551.569 833.457 568.435 840.773 558.68C846.514 551.025 830.576 533.213 826.692 528.034C818.612 517.26 811.941 505.454 803.5 494.902C791.445 479.834 772.459 470.668 759.601 455.973C736.123 429.141 707.676 407.171 685.884 378.115C660.759 344.615 647.628 304.415 626.248 268.781C622.535 262.593 620.846 254.689 614.652 250.559" fill="none" opacity="1" stroke="#fd8d33" stroke-linecap="round" stroke-linejoin="round" stroke-width="15.4763" vectornator:layerName="Curve 18"/>
<path d="M584.791 254.135C572.127 256.256 560.47 269.661 548.038 274.14C512.242 287.037 433.481 320.718 412.864 352.465C397.97 375.398 404.46 399.382 396.877 424.098C389.857 446.977 365.751 456.133 359.31 477.129C358.843 478.65 356.84 482.119 358.66 483.585C364.048 487.926 372.714 478.141 378.678 479.078C386.683 480.335 396.435 501.744 404.281 497.582C422.556 487.888 416.829 452.54 418.92 436.85C423.503 402.476 433.282 375.847 456.459 349.202C487.093 313.985 527.242 301.623 568.582 283.105C574.94 280.257 599.446 266.656 595.926 256.886C595.178 254.809 591.615 254.895 590.265 255.815C570.195 269.498 553.343 282.53 531.214 294.269C493.178 314.446 439.172 331.837 418.401 373.465C414.269 381.746 422.731 362.973 423.163 362.281C429.253 352.53 435.911 343.168 443.63 334.617C445.093 332.997 448.351 330.076 448.351 330.076C448.351 330.076 440.796 337.554 436.946 341.219C428.366 349.385 421.803 356.045 417.039 367.057C407.387 389.365 414.012 418.098 402.455 438.454C397.98 446.338 375.253 462.078 376.894 471.876C377.34 474.538 382.081 469.928 384.049 468.081C393.852 458.875 400.9 445.324 411.483 437.231C414.684 434.783 409.516 445.08 407.937 448.788C406.041 453.242 395.423 468.866 397.058 473.403C397.127 473.597 407.186 457.844 408.739 457.02C409.694 456.514 407.695 458.915 407.198 459.875C405.209 463.717 402.991 467.437 401.032 471.294C400.406 472.528 391.088 493.376 397.258 490.103C411.999 482.284 417.045 418.871 421.512 402.372C424.413 391.654 429.029 382.164 433.463 372.096C435.191 368.17 442.809 358.48 439.02 360.49C413.381 374.091 406.756 410.889 400.582 435.883C399.107 441.854 401.3 453.014 395.17 453.523C382.975 454.536 398.632 426.569 406.084 413.612C412.623 402.241 419.362 390.979 426.405 379.914" fill="none" opacity="1" stroke="#fddf19" stroke-linecap="round" stroke-linejoin="round" stroke-width="15.4763" vectornator:layerName="Curve 19"/>
<path d="M581.856 275.659C579.85 277.945 587.871 274.114 590.898 274.418C596.555 274.986 603.708 278.264 607.408 282.791C618.508 296.37 619.943 321.095 624.323 337.401C642.931 406.664 715.593 443.198 756.91 497.204C768.48 512.327 773.508 528.576 783.051 543.395C784.205 545.187 789.727 557.446 792.071 556.817C796.305 555.679 797.919 548.072 803.158 546.972C809.623 545.614 818.747 551.886 824.782 548.821C832.518 544.892 797.049 503.55 793.887 499.683C756.038 453.383 701.577 421.783 668.866 370.99C651.88 344.614 641.336 314.639 625.653 287.793C620.501 278.974 614.194 270.651 608.347 262.204C607.377 260.802 596.368 253.36 596.38 253.535C597.574 271.873 628.431 304.367 638.62 321.809C640.011 324.189 651.057 341.096 648.838 343.624C647.625 345.006 645.778 341.468 644.691 339.984C636.765 329.153 632.767 314.342 623.811 304.529C621.963 302.504 625.835 309.625 626.914 312.146C627.669 313.911 628.218 315.758 628.895 317.555C631.144 323.521 634.033 329.457 636.567 335.301C644.47 353.52 653.128 370.53 663.737 387.288C666.766 392.072 668.345 394.563 671.981 398.806C672.998 399.993 676.005 403.561 674.83 402.53C661.318 390.671 651.214 365.385 643.076 350.189C642.229 348.608 644.841 353.313 645.664 354.908C647.242 357.969 648.898 360.989 650.494 364.041C652.248 367.396 653.841 370.837 655.712 374.127C662.844 386.664 662.948 385.989 671.897 397.508C687.873 418.074 708.799 435.201 727.348 453.518C746.168 472.102 765.552 489.415 783.103 509.182C789.16 516.004 795.451 522.59 801.368 529.495C803.598 532.097 805.702 534.722 808.06 537.204C808.799 537.982 811.517 539.6 810.479 539.327C805.532 538.028 787.77 524.774 784.371 528.647C782.997 530.213 793.731 537.71 794.78 538.395C796.089 539.25 798.944 542.297 798.842 540.737C798.5 535.476 785.305 540.558 790.837 542.887C792.845 543.733 791.885 538.374 791.063 536.357C789.801 533.258 780.489 521.221 782.439 518.999C784.529 516.618 793.563 525.703 794.323 526.37C801.36 532.547 818.08 552.842 829.232 552.115C829.574 552.093 830.051 552.043 830.184 551.727C832.224 546.884 801.909 529.348 793.532 534.241C788.757 537.031 785.436 550.884 787.444 555.815C787.705 556.456 791.482 562.366 792.063 561.704C792.366 561.358 790.372 558.583 790.209 558.241C784.335 545.942 774.1 535.047 768.982 522.482C758.571 496.923 735.83 473.978 717.919 453.806C701.778 435.628 687.297 414.626 672.073 395.216" fill="none" opacity="1" stroke="#fddf19" stroke-linecap="round" stroke-linejoin="round" stroke-width="15.4763" vectornator:layerName="Curve 20"/>
<path d="M326.165 266.411C366.184 307.347 461.525 258.628 505.406 237.305C520.903 229.775 541.164 224.698 558.523 224.895C560.532 224.918 583.869 228.605 583.571 228.896C580.927 231.481 536.512 235.899 527.688 239.416C477.215 259.534 421.474 301.414 365.276 300.778C352.436 300.632 338.965 294.545 330.131 285.509C328.596 283.939 322.435 270.087 321.476 270.076C319.465 270.053 331.383 282.586 332.481 283.212C340.287 287.666 349.461 290.649 358.406 291.87C386.459 295.7 418.412 284.43 443.203 272.383" fill="none" opacity="1" stroke="#fddf19" stroke-linecap="round" stroke-linejoin="round" stroke-width="15.4763" vectornator:layerName="Curve 21"/>
<path d="M627.76 225.214C634.392 218.73 657.038 221.363 665.444 221.458C694.954 221.792 724.668 219.29 754.249 217.352C777.931 215.799 797.061 204.61 818.163 195.304C821.256 193.94 832.355 188.116 834.452 193.165C836.199 197.373 806.75 215.575 801.642 217.888C761.588 236.031 714.612 231.987 671.416 227.567" fill="none" opacity="1" stroke="#fddf19" stroke-linecap="round" stroke-linejoin="round" stroke-width="15.4763" vectornator:layerName="Curve 22"/>
<path d="M318.885 170.6C326.902 157.574 345.118 151.217 358.21 145.022C363.47 142.532 378.16 141.928 374.092 137.766C365.072 128.54 315.912 173.506 309.487 179.788C308.043 181.199 311.584 176.328 312.797 174.713C316.264 170.097 320.441 166.322 324.555 162.299C334.846 152.239 345.013 145.224 358.732 139.916C369.132 135.892 364.997 137.674 374.123 134.978C376.573 134.255 383.405 131.418 381.579 133.204C362.117 152.23 332.444 158.224 312.745 179.36C312.385 179.746 294.47 205.69 298.49 207.081C300.415 207.747 310.785 194.579 316.816 189.165C333.077 174.567 350.942 162.984 371.114 154.462C384.675 148.733 385.609 149.022 398.607 147.802C401.234 147.556 407.508 145.919 406.501 148.356C403.791 154.916 384.255 161.477 379.373 163.849C357.235 174.607 333.973 185.209 315.739 202.164C311.11 206.469 300.175 215.425 305.798 218.316C307.014 218.942 325.5 202.508 326.431 201.821C339.226 192.372 400.101 151.973 415.626 163.33C418.848 165.687 393.553 174.435 392.727 174.689C373.507 180.584 354.679 187.546 335.808 194.491C334.882 194.832 321.813 198.968 322.714 201.778C322.957 202.536 354.724 187.675 356.807 186.829C373.007 180.25 389.561 174.654 406.708 171.129C425.908 167.183 440.772 168.727 459.709 168.941C462.104 168.968 484.332 169.559 484.341 168.755C484.362 166.9 461.735 165.818 459.281 165.683C433.731 164.283 403.619 170.918 378.871 167.097C373.925 166.333 388.034 162.953 392.874 161.679C399.341 159.976 405.901 158.647 412.442 157.253C421.102 155.407 467.432 151.282 472.042 146.775C472.257 146.565 470.007 143.524 445.584 144.152C419.844 144.814 394.45 148.217 368.839 150.254C365.284 150.536 356.981 153.967 358.146 150.597C359.924 145.459 386.661 142.46 396.833 140.347C419.729 135.592 446.771 132.56 468.588 123.501C473.328 121.532 458.349 124.241 453.239 124.721C441.724 125.801 430.247 127.304 418.803 128.978C398.856 131.897 377.633 139.665 357.343 139.435C356.066 139.421 359.841 138.89 361.071 138.548C364.659 137.55 368.207 136.414 371.795 135.417C376.514 134.104 381.123 132.424 385.787 130.928C395.844 127.702 414.822 127.286 422.604 121.586C425.255 119.644 416.148 120.119 412.862 120.081C406.83 120.013 400.653 121.22 394.704 123.129" fill="none" opacity="1" stroke="#fddf19" stroke-linecap="round" stroke-linejoin="round" stroke-width="15.4763" vectornator:layerName="Curve 23"/>
<path d="M342.801 145.588C344.418 139.312 387.1 124.853 394.717 123.217C448.721 111.616 511.45 118.279 554.388 155.613C560.41 160.849 598.401 191.859 595.526 199.135C594.985 200.504 591.518 198.597 590.971 198.243C580.219 191.293 565.232 185.309 553.082 181.449C532.248 174.832 512.993 168.994 490.847 167.392C481.721 166.732 472.993 163.894 463.903 163.83C462.667 163.821 460.2 164.002 460.2 164.002C460.2 164.002 465.299 164.659 467.862 164.85C477.317 165.555 487.091 166.554 496.466 167.432C515.782 169.241 535.549 170.441 553.973 176.895C565.168 180.816 573.137 185.35 572.748 185.951C572.017 187.082 554.931 179.471 554.485 179.278C529.799 168.588 504.456 159.175 478.326 152.629C470.169 150.585 464.272 150.105 456.404 149.235C454.345 149.007 448.131 149.095 450.19 149.323C478.519 152.456 506.291 155.113 534.046 162.476C539.234 163.852 544.793 170.006 549.414 167.278C553.403 164.923 541.225 162.893 536.897 161.24C529.248 158.319 521.309 156.218 513.484 153.803C497.419 148.845 481.059 144.877 464.998 139.909C459.073 138.077 447.458 133.704 447.458 133.704C447.458 133.704 456.664 136.59 461.379 137.57C469.135 139.181 476.994 140.274 484.748 141.9C502.84 145.692 527.708 158.123 545.707 158.724C547.007 158.768 543.827 156.877 542.684 156.257C538.862 154.184 534.903 152.362 530.891 150.687C526.678 148.929 522.359 147.431 518.034 145.969C496.468 138.679 474.589 132.64 452.393 127.657C451.325 127.418 454.564 127.953 455.628 128.209C460.044 129.271 464.454 130.368 468.824 131.607C475.297 133.442 481.783 135.256 488.151 137.429C506.434 143.667 524.321 151.716 541.664 160.216C549.636 164.124 552.017 165.882 558.779 170.252C560.485 171.355 565.242 173.443 563.378 174.251C557.401 176.842 556.625 169.165 553.245 167.701C545.331 164.275 538.796 163.065 529.959 160.86C506.384 154.979 481.94 148.521 457.512 151.49" fill="none" opacity="1" stroke="#fddf19" stroke-linecap="round" stroke-linejoin="round" stroke-width="15.4763" vectornator:layerName="Curve 24"/>
<path d="M312.5 288.396C305.738 274.872 304.028 258.234 305.962 243.402C306.421 239.883 312.185 223.702 310.962 221.866C308.9 218.774 301.903 235.669 301.732 236.864C299.491 252.553 301.348 266.224 301.348 281.474C301.348 285.647 299.726 273.284 299.04 269.168C298.015 263.015 296.762 256.895 295.964 250.709C293.82 234.098 300.578 220.672 300.578 205.33C300.578 204.061 298.618 206.985 297.887 208.022C295.891 210.849 293.651 214.32 292.503 217.636C288.814 228.292 285.158 239.756 284.427 251.093C284.003 257.667 284.884 262.817 289.042 268.014C289.687 268.821 291.365 271.378 290.58 270.706C279.373 261.1 280.862 228.921 283.273 216.867C284.413 211.166 284.951 210.121 287.888 205.715C288.999 204.049 293.149 199.684 291.734 201.1C282.723 210.111 273.711 225.613 272.121 238.018C271.545 242.513 270.914 247.003 270.198 251.478C269.82 253.842 269.969 260.093 268.275 258.4C262.061 252.185 283.334 201.415 288.272 195.716C289.55 194.242 297.713 183.609 300.578 184.564C301.19 184.768 290.435 200.548 289.811 201.485C283.647 210.73 273.397 224.834 274.044 236.48C275.679 265.912 291.935 276.671 314.423 288.78C317.441 290.405 320.106 293.63 323.652 291.857" fill="none" opacity="1" stroke="#fddf19" stroke-linecap="round" stroke-linejoin="round" stroke-width="15.4763" vectornator:layerName="Curve 25"/>
<path d="M675.638 165.521C676.358 152.345 726.508 131.408 737.427 125.936C738.763 125.267 734.449 126.226 732.98 126.496C730.477 126.956 727.967 127.376 725.475 127.893C718.293 129.384 712.097 132.372 705.578 135.639C686.167 145.366 670.596 156.153 655.795 172.266C653.535 174.726 649.353 179.944 649.353 179.944C649.353 179.944 654.811 174.693 657.797 172.375C663.548 167.91 669.424 163.772 674.798 158.85C676.856 156.965 683.166 154.334 680.742 152.951C678.934 151.92 677.458 155.514 675.908 156.903C664.039 167.541 653.815 179.808 642.524 191.014C641.546 191.984 638.828 193.048 639.747 194.074C640.948 195.414 643.216 193.075 644.861 192.346C656.835 187.034 668.042 180.452 679.76 174.579C694.568 167.159 710.335 160.626 726.334 156.247C728.074 155.771 742.611 154.777 745.179 153.061C747.938 151.218 738.525 153.42 735.284 154.126C730.722 155.12 718.788 158.078 714.717 159.426C702.849 163.355 688.396 169.359 676.98 174.026C673.134 175.598 669.295 177.184 665.475 178.818C663.029 179.864 656.244 183.749 658.083 181.826C676.375 162.706 729.358 146.061 752.449 137.599C763.179 133.666 774.283 130.793 784.964 126.728C787.561 125.74 795.356 123.361 792.577 123.33C764.929 123.022 733.295 139.834 708.648 149.257C704.07 151.007 695.088 154.94 695.088 154.94C695.088 154.94 714.429 145.037 724.375 140.681C740.793 133.491 757.297 126.45 773.726 119.288C778.712 117.115 783.742 115.044 788.732 112.881C791.888 111.513 800.309 110.931 798.013 108.37C796.082 106.215 778.615 112.693 770.553 114.899C752.265 119.904 727.618 121.992 712.526 133.408C709.474 135.717 719.66 130.634 723.197 129.174C729.387 126.618 735.595 124.099 741.871 121.763C755.208 116.798 768.956 112.516 782.557 108.328C786.9 106.991 791.319 105.895 795.619 104.424C797.959 103.624 804.1 100.621 801.675 100.138C782.795 96.3795 754.199 112.403 737.199 119.098C731.248 121.441 725.407 124.053 719.525 126.564C717.428 127.459 711.271 130.205 713.524 129.849C742.159 125.332 770.815 109.912 799.12 102.809C804.473 101.466 814.961 97.8041 821.746 100.232C825.115 101.437 816.233 107.61 815.081 108.299C810.198 111.219 805.331 114.171 800.355 116.93C781.576 127.34 762.476 136.965 742.782 145.502C740.533 146.477 737.549 146.443 736.001 148.343C734.454 150.244 740.906 147.928 743.284 147.336C746.975 146.418 750.621 145.328 754.289 144.324C773.73 139.004 794.178 134.232 814.212 131.54C816.798 131.192 822.766 129.873 821.996 132.367C816.896 148.879 756.671 144.18 743.789 152.784C742.4 153.712 746.847 154.377 748.516 154.448C752.491 154.617 756.479 154.085 760.413 153.492C766.279 152.61 772.052 151.198 777.868 150.03C783.931 148.812 820.525 137.557 795.155 145.956" fill="none" opacity="1" stroke="#fddf19" stroke-linecap="round" stroke-linejoin="round" stroke-width="15.4763" vectornator:layerName="Curve 26"/>
<path d="M767.631 103.779C790.028 98.9096 819.358 87.5933 842.082 96.5101C873.864 108.981 898.185 153.641 870.044 181.95C868.44 183.564 865.232 184.967 863.4 182.691C850.706 166.92 864.571 150.68 837.231 134.642C828.413 129.469 818.199 127.869 808.218 126.4C803.196 125.661 788.032 124.218 793.078 124.764C805.198 126.074 816.964 127.48 829.047 129.381C837.18 130.66 845.311 131.963 853.403 133.472C916.773 145.295 806.666 112.681 803.366 110.559C801.928 109.635 806.679 111.403 808.335 111.826C813.572 113.161 818.748 114.038 824.04 114.982C835.257 116.983 851.96 123.412 863.457 121.431C871.216 120.094 849.458 113.969 841.888 111.806C828.748 108.05 805.282 108.359 824.215 93.12C832.443 86.4972 850.062 96.2744 856.91 101.03C877.867 115.585 887.895 144.203 880.254 168.467C879.505 170.846 869.034 189.534 867.102 188.926C860.514 186.851 860.742 172.029 857.028 167.415C849.475 158.031 842.125 151.511 830.86 146.352C821.445 142.041 810.427 141.643 800.502 143.8C797.589 144.434 794.53 144.395 791.617 145.028C789.898 145.402 784.665 145.735 786.415 145.924C804.925 147.925 822.102 150.114 840.252 153.932C844.147 154.751 860.774 162.425 864.452 159.465C871.822 153.533 859.966 146.305 855.917 143.955C853.666 142.648 847.387 138.264 849.019 140.292C853.751 146.17 865.998 144.582 872.265 147.91C872.913 148.254 875.502 155.468 875.889 154.866C878.583 150.675 875.816 142.045 876.318 137.408C876.329 137.306 877.631 129.227 877.896 129.556C883.697 136.763 886.224 172.119 879.65 180.801C877.371 183.811 860.638 201.339 855.509 194.966C853.617 192.616 863.605 171.468 864.237 168.194C864.492 166.877 865.088 147.465 865.776 147.209C868.47 146.208 883.478 175.028 887.697 167.083C896.021 151.41 883.555 127.464 870.102 120.69" fill="none" opacity="1" stroke="#fddf19" stroke-linecap="round" stroke-linejoin="round" stroke-width="15.4763" vectornator:layerName="Curve 27"/>
<path d="M602.614 225.722C652.409 162.225 706.293 94.1858 791.323 78.79C847.064 68.6974 918.443 108.828 887.931 169.247C865.96 212.755 808.123 229.422 764.058 234.751C708.795 241.436 652.202 236.199 597.001 242.876" fill="none" opacity="1" stroke="#f47f39" stroke-linecap="round" stroke-linejoin="round" stroke-width="26.097" vectornator:layerName="Curve 28"/>
<path d="M609.943 236.368C613.922 225.234 643.106 213.342 653.133 207.531C693.882 183.914 744.986 161.91 793.351 163.663C814.898 164.444 873.434 167.743 846.823 201.677" fill="none" opacity="1" stroke="#f47f39" stroke-linecap="round" stroke-linejoin="round" stroke-width="26.097" vectornator:layerName="Curve 29"/>
<path d="M611.261 210.948C607.231 177.627 574.342 148.819 544.023 131.765C475.072 92.981 354.745 97.8937 297.305 157.762C225.313 232.797 276.61 307.288 371.791 301.417C396.189 299.912 425.371 289.293 448.419 281.165C502.01 262.267 550.822 247.912 607.219 241.091" fill="none" opacity="1" stroke="#f47f39" stroke-linecap="round" stroke-linejoin="round" stroke-width="26.097" vectornator:layerName="Curve 30"/>
<path d="M604.945 217.752C557.275 180.369 423.834 162.245 371.082 191.123C354.455 200.225 333.972 206.713 324.086 224.814C307.963 254.335 350.447 301.22 378.404 287.986" fill="none" opacity="1" stroke="#f47f39" stroke-linecap="round" stroke-linejoin="round" stroke-width="26.097" vectornator:layerName="Curve 31"/>
<path d="M604.717 243.243C583.615 231.276 554.971 258.793 533.315 266.149C489.924 280.889 417.624 301.685 395.603 348.19C385.31 369.928 385.797 394.283 377.862 416.208C372.318 431.525 344.151 472.162 345.56 484.214C346.63 493.369 382.738 509.989 391.106 514.859C411.295 526.611 417.486 507.521 422.629 491.477C439.597 438.555 432.704 405.942 474.011 359.579C503.926 326.002 543.866 311.072 579.268 285.613C592.638 275.998 602.274 265.43 609.507 251.248C609.971 250.337 611.655 249.205 610.9 248.516C606.879 244.842 607.411 244.771 604.717 243.243Z" fill="none" opacity="1" stroke="#f47f39" stroke-linecap="round" stroke-linejoin="round" stroke-width="26.097" vectornator:layerName="Curve 32"/>
<path d="M622.714 252.699C649.368 282.65 667.232 324.761 689.033 358.727C707.265 387.132 730.193 416.728 754.785 439.771C768.554 452.674 785.191 462.41 798.924 475.048C811.05 486.208 856.556 523.611 850.118 539.734C847.018 547.496 834.664 552.319 828.582 556.35C818.763 562.859 808.659 568.179 797.953 572.775C796.016 573.606 792.434 579.93 790.486 579.421C785.036 577.997 747.175 522.877 740.597 515.485C723.335 496.088 707.818 472.763 688.102 455.782C661.216 432.625 632.03 403.303 616.853 370.709C603.138 341.253 601.358 308.387 593.237 278.294" fill="none" opacity="1" stroke="#f47f39" stroke-linecap="round" stroke-linejoin="round" stroke-width="26.097" vectornator:layerName="Curve 33"/>
<path d="M388.907 477.727C389.577 479.38 389.075 478.792 390.182 479.664" fill="none" opacity="1" stroke="#fddf19" stroke-linecap="round" stroke-linejoin="round" stroke-width="3.07569" vectornator:layerName="Curve 34"/>
<path d="M394.354 467.552C391.057 466.872 379.183 478.247 380.122 481.773C381.127 485.549 389.972 480.681 390.761 476.854C391.523 473.163 377.667 484.238 381.161 482.825C388.682 479.78 395.008 474.382 393.832 474.14C389.401 473.225 380.867 478.161 380.867 478.161C380.867 478.161 399.364 472.351 394.412 471.33C390.504 470.524 385.732 476.095 383.358 478.256" fill="none" opacity="1" stroke="#fddf19" stroke-linecap="round" stroke-linejoin="round" stroke-width="3.07569" vectornator:layerName="Curve 35"/>
<path d="M388.386 484.315C386.803 483.988 369.918 478.029 370.075 481.793C370.213 485.117 386.314 494.349 389.928 495.095C392.621 495.65 385.742 491.507 383.449 489.992C379.799 487.581 371.668 484.214 371.668 484.214C371.668 484.214 378.912 490.428 382.786 493.203C384.437 494.386 389.981 496.779 387.992 496.369C382.058 495.145 375.521 482.619 368.692 484.438C365.15 485.381 374.119 489.478 377.332 491.241C383.828 494.806 389.073 499.521 396.243 501" fill="none" opacity="1" stroke="#fddf19" stroke-linecap="round" stroke-linejoin="round" stroke-width="3.07569" vectornator:layerName="Curve 36"/>
<path d="M295.315 188.931C299.111 182.38 305.436 175.711 311.178 170.862C311.914 170.24 321.936 164.014 321.192 162.884C320.288 161.51 318.381 164.653 317.236 165.834C310.738 172.533 302.458 178.227 297.182 185.969C297.17 185.985 296.034 188.458 295.799 188.613C293.225 190.307 297.833 182.702 299.628 180.196C303.486 174.811 307.895 169.422 313.139 165.408C315.365 163.704 322.661 159.489 320.319 161.03C315.095 164.467 295.858 187.649 295.563 187.727C295.495 187.746 298.041 183.165 298.245 182.84C300.179 179.771 301.094 177.801 303.596 175.156C307.74 170.777 318.462 165.527 321.205 160.794C323.288 157.199 314.152 165.233 310.954 167.886C304.159 173.525 300.07 179.931 295.009 186.358C292.791 189.175 298.121 179.841 300.29 176.985C306.207 169.194 313.01 163.259 320.663 157.335C321.895 156.381 324.218 154.302 324.218 154.302C324.218 154.302 322.725 155.605 322.116 156.379C318.884 160.483 314.295 163.348 311.037 167.485C310.467 168.209 307.902 173.115 306.986 172.926C306.96 172.921 317.877 162.095 318.548 161.502C326.675 154.318 335.564 150.305 344.21 144.616" fill="none" opacity="1" stroke="#fddf19" stroke-linecap="round" stroke-linejoin="round" stroke-width="3.07569" vectornator:layerName="Curve 37"/>
<path d="M365.839 277.127C369.652 277.914 373.053 278.415 376.842 278.56C381.361 278.733 380.11 279.173 384.232 279.247C412.109 279.751 366.873 273.177 367.457 275.369C367.556 275.742 367.81 276.075 368.094 276.337C373.901 281.68 408.363 275.056 390.1 279.202C387.023 279.901 384.044 279.207 380.939 278.986C378.183 278.791 373.413 276.628 370.821 277.318C368.151 278.029 375.895 279.62 378.6 280.178C383.567 281.202 393.141 283.792 397.727 280.775C398.956 279.966 394.803 281.174 393.382 281.553C391.451 282.067 389.892 282.161 387.832 282.082C381.006 281.821 372.191 279.844 365.756 277.529C363.424 276.69 361.665 275.429 359.181 274.917C358.102 274.695 354.974 273.631 356.052 273.853C373.092 277.368 391.76 275.725 408.474 271.275" fill="none" opacity="1" stroke="#fddf19" stroke-linecap="round" stroke-linejoin="round" stroke-width="6.37521" vectornator:layerName="Curve 38"/>
<path d="M354.697 547.284C372.77 547.378 391.053 541.396 409.429 542.385C433.063 543.658 456.357 547.939 479.641 551.559C519.999 557.833 567.08 551.298 606.888 545.688C614.433 544.624 686.007 534.682 690.378 542.307C693.547 547.836 688.116 554.468 690.023 560.162C699.12 587.33 696.022 616.496 698.419 645.012C699.879 662.382 694.231 685.042 697.508 701.31C698.432 705.897 704.192 719.892 702.097 724.095C698.256 731.805 639.01 728.301 628.484 727.462C568.812 722.706 511.891 714.541 451.147 716.155C446.225 716.286 378.134 715.746 376.995 714.889C371.207 710.53 371.293 699.031 369.444 693.095C365.025 678.9 360.213 664.27 359.812 649.195C359.182 625.484 366.437 604.691 356.53 581.887C353.416 574.72 349.298 547.256 354.697 547.284Z" fill="#ffffff" fill-rule="nonzero" opacity="1" stroke="#635a59" stroke-linecap="round" stroke-linejoin="round" stroke-width="10.8668" vectornator:layerName="Curve 39"/>
</g>
</svg>
